<svg width="15" height="16" viewBox="0 0 15 16" fill="none" xmlns="http://www.w3.org/2000/svg">
<path d="M3.1252 10.2499C3.78152 10.2462 4.41278 9.99746 4.8952 9.55244L9.5902 12.2374C9.53039 12.4447 9.5001 12.6593 9.5002 12.8749C9.49538 13.4836 9.70043 14.0753 10.0808 14.5505C10.4612 15.0257 10.9937 15.3552 11.5887 15.4837C12.1837 15.6122 12.8047 15.5318 13.3473 15.256C13.8899 14.9802 14.3209 14.5258 14.5677 13.9694C14.8145 13.413 14.8621 12.7886 14.7024 12.2012C14.5426 11.6139 14.1854 11.0995 13.6908 10.7447C13.1963 10.3899 12.5945 10.2163 11.987 10.2533C11.3794 10.2902 10.8032 10.5354 10.3552 10.9474L5.6602 8.26244C5.71686 8.07762 5.74716 7.88573 5.7502 7.69244L10.3627 5.05244C10.8082 5.45507 11.3787 5.69225 11.9783 5.72421C12.578 5.75617 13.1704 5.58097 13.6563 5.22798C14.1421 4.87499 14.4917 4.36568 14.6466 3.78548C14.8015 3.20528 14.7521 2.58946 14.5069 2.04132C14.2616 1.49318 13.8353 1.04605 13.2995 0.774909C12.7636 0.503773 12.1509 0.425126 11.564 0.552157C10.977 0.679189 10.4516 1.00417 10.0759 1.47261C9.70012 1.94104 9.49687 2.52443 9.5002 3.12494C9.50274 3.34042 9.53298 3.55468 9.5902 3.76244L5.3227 6.19994C5.07543 5.81741 4.73288 5.5058 4.32871 5.29574C3.92455 5.08569 3.47268 4.98441 3.01752 5.00188C2.56236 5.01934 2.11958 5.15494 1.7327 5.39535C1.34582 5.63576 1.02815 5.9727 0.810918 6.37305C0.593688 6.77341 0.484373 7.2234 0.493717 7.6788C0.50306 8.13419 0.630742 8.57932 0.864211 8.97043C1.09768 9.36154 1.4289 9.68516 1.82532 9.9095C2.22174 10.1338 2.66971 10.2512 3.1252 10.2499ZM12.1252 11.7499C12.3477 11.7499 12.5652 11.8159 12.7502 11.9395C12.9352 12.0632 13.0794 12.2389 13.1646 12.4444C13.2497 12.65 13.272 12.8762 13.2286 13.0944C13.1852 13.3126 13.078 13.5131 12.9207 13.6704C12.7634 13.8278 12.5629 13.9349 12.3447 13.9783C12.1264 14.0217 11.9002 13.9995 11.6947 13.9143C11.4891 13.8292 11.3134 13.685 11.1898 13.5C11.0662 13.3149 11.0002 13.0974 11.0002 12.8749C11.0002 12.5766 11.1187 12.2904 11.3297 12.0794C11.5407 11.8685 11.8268 11.7499 12.1252 11.7499ZM12.1252 1.99994C12.3477 1.99994 12.5652 2.06592 12.7502 2.18954C12.9352 2.31315 13.0794 2.48885 13.1646 2.69442C13.2497 2.89999 13.272 3.12619 13.2286 3.34441C13.1852 3.56264 13.078 3.7631 12.9207 3.92043C12.7634 4.07777 12.5629 4.18491 12.3447 4.22832C12.1264 4.27173 11.9002 4.24945 11.6947 4.1643C11.4891 4.07915 11.3134 3.93496 11.1898 3.74995C11.0662 3.56495 11.0002 3.34744 11.0002 3.12494C11.0002 2.82657 11.1187 2.54042 11.3297 2.32944C11.5407 2.11846 11.8268 1.99994 12.1252 1.99994ZM3.1252 6.49994C3.3477 6.49994 3.56521 6.56592 3.75022 6.68953C3.93522 6.81315 4.07941 6.98885 4.16456 7.19442C4.24971 7.39999 4.27199 7.62619 4.22858 7.84441C4.18517 8.06264 4.07803 8.2631 3.92069 8.42043C3.76336 8.57777 3.5629 8.68491 3.34468 8.72832C3.12645 8.77173 2.90025 8.74945 2.69468 8.6643C2.48911 8.57915 2.31341 8.43496 2.1898 8.24995C2.06618 8.06495 2.0002 7.84744 2.0002 7.62494C2.0002 7.32657 2.11873 7.04042 2.3297 6.82944C2.54068 6.61846 2.82683 6.49994 3.1252 6.49994Z" fill="white"/>
</svg>
