<svg width="17" height="16" viewBox="0 0 17 16" fill="none" xmlns="http://www.w3.org/2000/svg">
<path fill-rule="evenodd" clip-rule="evenodd" d="M13.1342 2.48298C13.1567 2.27645 13.1049 2.09714 12.9811 1.95417C12.7266 1.65682 12.4271 1.53881 12.0285 1.5774C11.1511 1.66583 10.0781 2.54725 9.49222 3.40901H12.5807C12.8945 3.14603 13.1005 2.80661 13.1342 2.48298ZM5.6197 1.57967C6.49716 1.6681 7.56793 2.54725 8.156 3.40901H5.06746C4.75376 3.15052 4.5477 2.80888 4.51402 2.48525C4.49149 2.27872 4.54331 2.10168 4.66716 1.95644C4.92161 1.65909 5.22562 1.54107 5.6197 1.57967ZM3.39484 2.60556C3.42403 2.88163 3.50919 3.15095 3.64139 3.40901H1.29607C1.04836 3.40901 0.845703 3.611 0.845703 3.86294V6.80671C0.845703 7.05638 1.04836 7.26065 1.29607 7.26065H2.39951V15.1977C2.39951 15.4474 2.60217 15.6517 2.84988 15.6517H7.6734V15.6539H9.97482V15.6517H14.7983C15.0461 15.6517 15.2487 15.4474 15.2487 15.1977V7.26065H16.3499C16.5976 7.26065 16.8002 7.05638 16.8002 6.80671V3.86294C16.8002 3.61327 16.5976 3.40901 16.3499 3.40901H14.0069C14.1368 3.15319 14.2242 2.88163 14.2534 2.60556C14.3074 2.08807 14.1588 1.59556 13.8345 1.21425C13.3414 0.63774 12.6793 0.372185 11.9182 0.449358C10.7675 0.565105 9.58976 1.45029 8.82411 2.41264C8.05624 1.45256 6.88075 0.565105 5.73004 0.449358C4.97115 0.372185 4.30685 0.63774 3.8137 1.21425C3.48943 1.59556 3.3408 2.09034 3.39484 2.60556ZM12.7503 7.53816C12.7503 7.00337 12.319 6.56983 11.7871 6.56983C11.2551 6.56983 10.8239 7.00337 10.8239 7.53816V13.6756C10.8239 13.6824 10.8295 13.688 10.8363 13.688H12.7378C12.7447 13.688 12.7503 13.6824 12.7503 13.6756V7.53816ZM9.90888 9.14825C9.90888 8.61345 9.47766 8.17992 8.94569 8.17992C8.41376 8.17992 7.98254 8.61345 7.98254 9.14825V13.6794C7.98254 13.684 7.98632 13.6878 7.99095 13.6878H9.90046C9.9051 13.6878 9.90888 13.684 9.90888 13.6794V9.14825ZM6.10432 10.2644C6.63626 10.2644 7.06748 10.6979 7.06748 11.2327V13.684C7.06748 13.6861 7.06578 13.6879 7.06367 13.6879H5.14497C5.14287 13.6879 5.14116 13.6861 5.14116 13.684V11.2327C5.14116 10.6979 5.57238 10.2644 6.10432 10.2644Z" fill="url(#paint0_linear_26_622)"/>
<defs>
<linearGradient id="paint0_linear_26_622" x1="4.76369" y1="0.920099" x2="18.9682" y2="10.302" gradientUnits="userSpaceOnUse">
<stop stop-color="white"/>
<stop offset="1" stop-color="white" stop-opacity="0.3"/>
</linearGradient>
</defs>
</svg>
