<svg width="51" height="51" viewBox="0 0 51 51" fill="none" xmlns="http://www.w3.org/2000/svg">
<path d="M0 15.3495C0 6.87221 6.87221 0 15.3495 0H35.6505C44.1278 0 51 6.87221 51 15.3495V35.6505C51 44.1278 44.1278 51 35.6505 51H15.3495C6.87221 51 0 44.1278 0 35.6505V15.3495Z" fill="#1F1F23"/>
<path d="M13.9305 38.4614V31.2288C13.9305 31.0327 13.8949 30.8946 13.8236 30.8144C13.7523 30.7253 13.6231 30.6807 13.4359 30.6807C13.427 30.449 13.4894 30.2663 13.6231 30.1326C13.7567 29.9989 13.9707 29.932 14.2648 29.932C14.5589 29.932 14.7683 30.0791 14.8931 30.3732C15.2407 30.0791 15.5972 29.932 15.9626 29.932C16.845 29.932 17.2861 30.3687 17.2861 31.2422V34.3438C17.2861 34.9053 17.05 35.3063 16.5776 35.547L16.8583 37.3384C16.9029 37.6236 17.041 37.7662 17.2728 37.7662C17.3441 37.7662 17.4287 37.7484 17.5268 37.7127C17.5624 37.8197 17.5803 37.9489 17.5803 38.1004C17.5803 38.243 17.5045 38.3901 17.353 38.5416C17.2104 38.6842 17.0232 38.7555 16.7915 38.7555C16.2657 38.7555 15.9671 38.5283 15.8958 38.0737L15.5081 35.7609H14.9867V37.3652L15.0402 38.6218C14.7371 38.6664 14.4386 38.6887 14.1444 38.6887C14.0018 38.6887 13.9305 38.6129 13.9305 38.4614ZM15.7086 30.8144C15.468 30.8144 15.2273 30.9347 14.9867 31.1753V34.8785H15.6017C15.7888 34.8785 15.9403 34.834 16.0562 34.7448C16.1721 34.6468 16.23 34.5131 16.23 34.3438V31.3224C16.23 30.9837 16.0562 30.8144 15.7086 30.8144Z" fill="white"/>
<path d="M18.4099 38.4614V31.2154C18.4099 30.7698 18.5614 30.4222 18.8644 30.1727C19.1674 29.9231 19.5819 29.7983 20.1077 29.7983C20.6336 29.7983 21.0391 29.9142 21.3243 30.1459C21.6184 30.3777 21.7655 30.7163 21.7655 31.162V37.4855C21.7655 37.6726 21.8011 37.8063 21.8724 37.8865C21.9526 37.9578 22.0863 37.9935 22.2735 37.9935C22.2735 38.5015 21.9883 38.7555 21.4179 38.7555C20.9455 38.7555 20.7093 38.448 20.7093 37.8331V35.2796H19.466V37.3652L19.5195 38.6218C19.2165 38.6664 18.9179 38.6887 18.6238 38.6887C18.4812 38.6887 18.4099 38.6129 18.4099 38.4614ZM19.466 31.2154V34.3973H20.7093V31.2154C20.7093 31.0461 20.6514 30.9169 20.5355 30.8277C20.4197 30.7297 20.2682 30.6807 20.081 30.6807C19.8938 30.6807 19.7423 30.7297 19.6264 30.8277C19.5195 30.9169 19.466 31.0461 19.466 31.2154Z" fill="white"/>
<path d="M24.722 33.9694C25.0428 33.9694 25.2835 33.9472 25.4439 33.9026C25.5152 34.1522 25.5509 34.3973 25.5509 34.6379C25.5509 34.7805 25.4885 34.8518 25.3637 34.8518H24.0535V37.4855C24.0535 37.6726 24.0892 37.8063 24.1605 37.8865C24.2407 37.9578 24.3744 37.9935 24.5616 37.9935C24.5616 38.5015 24.2764 38.7555 23.706 38.7555C23.2336 38.7555 22.9974 38.448 22.9974 37.8331V31.2288C22.9974 31.0327 22.9617 30.8946 22.8904 30.8144C22.8191 30.7253 22.6899 30.6807 22.5027 30.6807C22.4938 30.449 22.5562 30.2663 22.6899 30.1326C22.8236 29.9989 23.0152 29.932 23.2648 29.932H24.9626L25.6311 29.8652C25.7024 30.1147 25.738 30.3598 25.738 30.6005C25.738 30.7431 25.6756 30.8144 25.5509 30.8144H24.0535V33.9694H24.722Z" fill="white"/>
<path d="M28.5958 33.9694C28.9167 33.9694 29.1573 33.9472 29.3178 33.9026C29.3891 34.1522 29.4247 34.3973 29.4247 34.6379C29.4247 34.7805 29.3623 34.8518 29.2376 34.8518H27.9274V37.4855C27.9274 37.6726 27.963 37.8063 28.0344 37.8865C28.1146 37.9578 28.2483 37.9935 28.4354 37.9935C28.4354 38.5015 28.1502 38.7555 27.5798 38.7555C27.1074 38.7555 26.8713 38.448 26.8713 37.8331V31.2288C26.8713 31.0327 26.8356 30.8946 26.7643 30.8144C26.693 30.7253 26.5638 30.6807 26.3766 30.6807C26.3677 30.449 26.4301 30.2663 26.5638 30.1326C26.6975 29.9989 26.8891 29.932 27.1386 29.932H28.8365L29.5049 29.8652C29.5762 30.1147 29.6119 30.3598 29.6119 30.6005C29.6119 30.7431 29.5495 30.8144 29.4247 30.8144H27.9274V33.9694H28.5958Z" fill="white"/>
<path d="M32.5365 37.7395C32.8574 37.7395 33.098 37.7172 33.2585 37.6726C33.3298 37.9222 33.3654 38.1673 33.3654 38.4079C33.3654 38.5505 33.303 38.6218 33.1783 38.6218H30.5446V31.1887L30.4911 29.932C30.7941 29.8875 31.0927 29.8652 31.3868 29.8652C31.5294 29.8652 31.6007 29.9409 31.6007 30.0925V37.7395H32.5365Z" fill="white"/>
<path d="M36.3479 31.0283C36.3479 30.5916 36.3168 30.2261 36.2544 29.932C36.5574 29.8964 36.8649 29.8786 37.1768 29.8786C37.3283 29.8786 37.4041 29.9454 37.4041 30.0791V37.3384C37.4041 37.784 37.2526 38.1316 36.9495 38.3812C36.6465 38.6307 36.2365 38.7555 35.7196 38.7555C35.2116 38.7555 34.8061 38.6441 34.503 38.4213C34.2 38.1896 34.0485 37.891 34.0485 37.5256V36.6165C34.0485 36.4561 34.1644 36.3447 34.3961 36.2823C34.5209 36.2466 34.6456 36.2288 34.7704 36.2288C34.8952 36.2288 35.02 36.2422 35.1447 36.2689C35.118 36.4828 35.1046 36.7101 35.1046 36.9507V37.3384C35.1046 37.5078 35.1626 37.6414 35.2784 37.7395C35.3943 37.8286 35.5458 37.8732 35.733 37.8732C35.9201 37.8732 36.0672 37.8286 36.1741 37.7395C36.29 37.6414 36.3479 37.5078 36.3479 37.3384V35.2529C36.1162 35.4846 35.8043 35.6005 35.4121 35.6005C34.503 35.6005 34.0485 35.1727 34.0485 34.317V31.0684C34.0485 30.8812 34.0084 30.752 33.9282 30.6807C33.8569 30.6005 33.7276 30.5604 33.5405 30.5604C33.5405 30.0523 33.8257 29.7983 34.3961 29.7983C34.8685 29.7983 35.1046 30.1058 35.1046 30.7208V34.2368C35.1046 34.5577 35.2651 34.7181 35.5859 34.7181C35.9157 34.7181 36.1697 34.5621 36.3479 34.2502V31.0283Z" fill="white"/>
<path fill-rule="evenodd" clip-rule="evenodd" d="M31.5713 17.258L27.9461 17.1238L24.4736 19.5545C24.4736 19.5545 26.6828 21.9425 28.2933 23.2584C29.2878 24.071 30.8077 24.9371 31.9284 25.5305C32.8087 25.9966 33.8751 25.8569 34.6374 25.2158L43.5721 17.7025L36.2542 17.4315C32.0362 20.169 31.3487 18.6392 31.5713 17.258Z" fill="url(#paint0_linear_92_226)"/>
<path fill-rule="evenodd" clip-rule="evenodd" d="M19.7589 15.7136L16.4873 12.3784L14.1317 14.734C14.7249 15.2639 15.0983 16.0346 15.0983 16.8926C15.0983 18.4908 13.8027 19.7863 12.2046 19.7863C11.3466 19.7863 10.5758 19.4129 10.0459 18.8198L7.92188 20.9438L8.65594 21.6779C9.52188 22.5438 10.4593 23.333 11.4574 24.0375C11.5532 23.8501 11.7481 23.7218 11.9731 23.7218C12.2927 23.7218 12.5518 23.9808 12.5518 24.3005C12.5518 24.4434 12.5 24.5742 12.4142 24.6752C12.7668 24.8968 13.1262 25.1083 13.4917 25.3094C14.7734 26.0143 16.2125 26.384 17.6753 26.384H32.229L31.4088 25.9863C29.424 25.0239 27.6197 23.727 26.075 22.1523L20.5538 16.524C20.4496 16.6766 20.2742 16.7769 20.0754 16.7769C19.7558 16.7769 19.4967 16.5178 19.4967 16.1981C19.4967 15.9953 19.601 15.8169 19.7589 15.7136ZM18.918 17.9343C19.2376 17.9343 19.4967 17.6753 19.4967 17.3556C19.4967 17.0359 19.2376 16.7769 18.918 16.7769C18.5984 16.7769 18.3392 17.0359 18.3392 17.3556C18.3392 17.6753 18.5984 17.9343 18.918 17.9343ZM18.3392 18.5131C18.3392 18.8327 18.0801 19.0918 17.7605 19.0918C17.4409 19.0918 17.1817 18.8327 17.1817 18.5131C17.1817 18.1934 17.4409 17.9343 17.7605 17.9343C18.0801 17.9343 18.3392 18.1934 18.3392 18.5131ZM16.603 20.2493C16.9226 20.2493 17.1817 19.9902 17.1817 19.6706C17.1817 19.3509 16.9226 19.0918 16.603 19.0918C16.2834 19.0918 16.0243 19.3509 16.0243 19.6706C16.0243 19.9902 16.2834 20.2493 16.603 20.2493ZM16.0243 20.828C16.0243 21.1477 15.7651 21.4068 15.4455 21.4068C15.1259 21.4068 14.8668 21.1477 14.8668 20.828C14.8668 20.5084 15.1259 20.2493 15.4455 20.2493C15.7651 20.2493 16.0243 20.5084 16.0243 20.828ZM14.288 22.5643C14.6076 22.5643 14.8668 22.3052 14.8668 21.9855C14.8668 21.6659 14.6076 21.4068 14.288 21.4068C13.9684 21.4068 13.7093 21.6659 13.7093 21.9855C13.7093 22.3052 13.9684 22.5643 14.288 22.5643ZM13.7093 23.143C13.7093 23.4627 13.4502 23.7218 13.1305 23.7218C12.8109 23.7218 12.5518 23.4627 12.5518 23.143C12.5518 22.8233 12.8109 22.5643 13.1305 22.5643C13.4502 22.5643 13.7093 22.8233 13.7093 23.143Z" fill="url(#paint1_linear_92_226)"/>
<defs>
<linearGradient id="paint0_linear_92_226" x1="38.2477" y1="13.1883" x2="27.3673" y2="23.0269" gradientUnits="userSpaceOnUse">
<stop stop-color="#3DD6B4"/>
<stop offset="1" stop-color="#01ABB3"/>
</linearGradient>
<linearGradient id="paint1_linear_92_226" x1="11.6258" y1="15.5036" x2="25.6314" y2="26.2682" gradientUnits="userSpaceOnUse">
<stop stop-color="#6FE7BC"/>
<stop offset="1" stop-color="#00ABB3"/>
</linearGradient>
</defs>
</svg>
