<svg width="97" height="72" viewBox="0 0 97 72" fill="none" xmlns="http://www.w3.org/2000/svg">
<g opacity="0.5">
<path d="M47.7235 17.9372L44.8069 19.641C45.3393 19.265 45.8263 18.676 46.2451 17.9879C47.2481 16.3401 47.8249 14.1458 47.6674 13.2156L50.9462 11.3003C51.1996 12.7059 49.7329 16.9758 47.7235 17.9372Z" fill="url(#paint0_linear_26_543)"/>
<path d="M42.1924 19.3912C41.0504 18.3331 39.876 17.2323 38.7988 16.7005C38.9035 16.1833 39.061 15.7327 39.2901 15.3947C39.5088 15.0737 39.7427 14.843 39.9967 14.6941L40.0482 14.6671C41.5553 13.8213 43.5627 15.7015 45.4797 17.481C45.7426 17.7203 45.9972 17.8966 46.2623 17.9981C45.8435 18.6861 45.3565 19.2751 44.8241 19.6511C44.0136 20.1964 43.1176 20.2493 42.1924 19.3912Z" fill="url(#paint1_linear_26_543)"/>
<path d="M34.3884 25.7678L34.3644 25.7881C34.1292 25.9252 33.8209 25.9138 33.4191 25.7302C31.5279 24.8481 28.879 23.1971 26.7338 22.9049C26.7805 22.7705 26.8358 22.6413 26.8911 22.5121C27.1345 21.9971 27.4511 21.6305 27.8117 21.3833C29.6097 20.1555 32.6784 21.7689 35.1779 23.0516C35.0909 24.3453 34.9224 25.4275 34.3884 25.7678Z" fill="url(#paint2_linear_26_543)"/>
<path d="M23.3007 33.2444C23.1532 33.2949 22.9528 33.2789 22.6962 33.1826C20.6794 32.4686 18.5293 29.8064 16.6531 29.0146C16.8447 28.6424 17.0533 28.2805 17.279 27.9289C17.5132 27.5824 17.7625 27.3263 18.0132 27.1637C18.0751 27.1197 18.1317 27.0841 18.1969 27.0537C19.6916 26.3049 21.5144 28.0858 23.3725 29.5977C23.6163 31.2876 23.9072 32.7273 23.4569 33.1411C23.4174 33.1869 23.3607 33.2225 23.3007 33.2444Z" fill="url(#paint3_linear_26_543)"/>
<path d="M37.6216 23.8714L34.3806 25.763C34.9231 25.4279 35.0779 24.349 35.1615 23.0417C35.2803 21.0246 35.2093 18.4755 35.9981 17.3138C36.2168 16.9928 36.4507 16.7621 36.7047 16.6132L39.9835 14.6979C39.7294 14.8468 39.4956 15.0775 39.2769 15.3985C39.0478 15.7365 38.8903 16.1871 38.7856 16.7043C38.2711 19.1797 38.8162 23.2322 37.6216 23.8714Z" fill="url(#paint4_linear_26_543)"/>
<path d="M26.6776 31.2835L26.6639 31.2868L23.4659 33.1463C23.9162 32.7325 23.6252 31.2927 23.3814 29.6028C23.1275 27.872 22.9225 25.869 23.6045 24.4226C23.8756 23.843 24.2436 23.4494 24.6624 23.2023L27.8038 21.3784C27.438 21.6342 27.1215 22.0008 26.8832 22.5073C26.8194 22.6313 26.7727 22.7657 26.7259 22.9C25.6871 25.8723 27.7146 30.6539 26.6776 31.2835Z" fill="url(#paint5_linear_26_543)"/>
<path d="M13.1567 38.9214L9.87793 40.8367C11.7497 39.5836 11.4359 33.6744 13.9954 29.853C14.2814 29.4216 14.5907 29.1435 14.9134 28.9778L18.0085 27.1725C17.7526 27.3435 17.5085 27.5912 17.2742 27.9376C17.04 28.2841 16.8314 28.646 16.6484 29.0233C14.7571 32.7825 14.8585 37.775 13.1567 38.9214Z" fill="url(#paint6_linear_26_543)"/>
<path d="M46.7314 60.5015C47.1997 60.476 47.6705 60.3347 48.1316 60.0961C50.5878 58.8059 52.6111 54.6181 50.8921 50.0608L53.6275 49.9382C55.6198 55.232 52.5741 60.0226 49.649 60.3556L49.2562 60.3726L46.7314 60.5015Z" fill="url(#paint7_linear_26_543)"/>
<path d="M34.3442 60.3373C32.1315 60.5292 30.3159 52.1177 27.1073 50.234C27.4989 49.9548 27.9277 49.7802 28.4047 49.7497L28.5248 49.7387C31.8004 49.6756 33.7309 56.6846 35.663 59.2693C35.3888 59.8134 35.0306 60.2109 34.4817 60.3165C34.4284 60.3238 34.3888 60.3349 34.3442 60.3373Z" fill="url(#paint8_linear_26_543)"/>
<path d="M46.7313 60.5021C46.5393 60.5081 46.3423 60.5055 46.1479 60.4672C43.5429 60.0358 42.6092 55.6046 40.4372 54.2647C40.7532 53.994 41.1411 53.8083 41.6354 53.768L41.6577 53.7668C41.68 53.7656 41.711 53.7594 41.7333 53.7582C44.75 53.6247 45.6088 58.8069 48.1179 60.0929C47.6705 60.3352 47.1996 60.4765 46.7313 60.5021Z" fill="url(#paint9_linear_26_543)"/>
<path d="M37.2085 60.1993L34.4818 60.317C35.0306 60.2115 35.3939 59.8226 35.6631 59.2699C36.5574 57.4825 36.5262 54.0826 38.9173 53.881L41.6441 53.7633C41.1497 53.8036 40.7569 53.9807 40.4458 54.26C38.7637 55.7169 39.1661 59.8435 37.2085 60.1993Z" fill="url(#paint10_linear_26_543)"/>
<path d="M26.4867 60.3703L23.8541 60.4917C22.4529 60.5549 21.7842 58.2481 21.9504 56.0735C22.1604 53.2341 23.4595 50.0284 25.6697 49.8722L28.4052 49.7496C27.9282 49.7801 27.4994 49.9547 27.1078 50.2339C25.6837 51.2588 24.8434 53.7013 24.6809 55.9423C24.5959 57.0764 24.6869 58.1564 24.9552 58.9643C25.2445 59.8289 25.7496 60.3883 26.4867 60.3703Z" fill="url(#paint11_linear_26_543)"/>
<path d="M57.1416 33.5364C56.125 33.5487 54.9583 33.8243 53.6692 34.4993C52.444 31.8389 52.0169 28.7949 53.9607 27.5322C54.0605 27.4716 54.1602 27.4109 54.2639 27.3698C54.7785 27.1446 55.3367 27.1334 55.9385 27.2857C55.3572 28.983 56.0334 31.4501 57.1416 33.5364Z" fill="url(#paint12_linear_26_543)"/>
<path d="M93.0086 18.0661C92.4646 18.2972 91.6789 18.1921 90.7125 17.9006C90.5823 14.5131 87.026 8.01727 87.026 8.01727L90.1302 6.29795C90.1302 6.29795 95.5974 16.2683 93.2276 17.9409C93.1553 17.9859 93.0829 18.0309 93.0086 18.0661Z" fill="url(#paint13_linear_26_543)"/>
<path d="M57.7659 39.1447C56.7214 38.9702 55.3741 37.5601 54.3117 35.7482C57.6294 35.5762 59.2033 38.2474 58.5079 38.9851C58.3653 39.1354 58.1245 39.2041 57.7659 39.1447Z" fill="url(#paint14_linear_26_543)"/>
<path d="M72.7402 31.4682L70.0546 32.9412L69.413 33.2933C65.0283 35.1794 59.7 28.1896 55.9466 27.2743C55.3448 27.122 54.7768 27.1352 54.272 27.3584L56.9576 25.8855C56.9928 25.8581 57.028 25.8308 57.0652 25.8132C60.3661 23.6592 66.0994 32.0361 71.045 31.9009C71.6013 31.88 72.1475 31.7599 72.6757 31.5015C72.705 31.4956 72.7226 31.4819 72.7402 31.4682Z" fill="url(#paint15_linear_26_543)"/>
<path d="M72.9068 31.3844L72.7425 31.4783C72.7249 31.4919 72.6955 31.4979 72.6779 31.5115C72.1497 31.7699 71.6035 31.89 71.0473 31.9109C73.3313 28.1182 68.7671 19.6779 73.326 16.9463C73.3905 16.9131 73.4531 16.8701 73.5176 16.8368L73.5352 16.8231C74.0771 16.5316 74.6623 16.353 75.283 16.2482C72.3763 20.136 77.288 28.8811 72.9068 31.3844Z" fill="url(#paint16_linear_26_543)"/>
<path d="M93.0084 18.0658L89.9042 19.7852C87.5602 20.7841 80.4184 15.4461 75.2826 16.2477C74.6697 16.3408 74.0865 16.5292 73.5349 16.8226L76.6488 15.1013C80.7038 12.9473 86.9819 16.7981 90.7045 17.9121C91.6787 18.1919 92.4644 18.297 93.0084 18.0658Z" fill="url(#paint17_linear_26_543)"/>
<path d="M61.5102 37.3166L58.5057 38.9753C59.2012 38.2375 57.6273 35.5664 54.3095 35.7384C52.9679 35.806 51.3533 36.3339 49.4802 37.6431L52.2518 35.3425C52.7328 35.0025 53.2041 34.7151 53.656 34.4822C54.9549 33.8053 56.1216 33.5297 57.1284 33.5194C60.66 33.4968 62.3703 36.6368 61.5102 37.3166Z" fill="url(#paint18_linear_26_543)"/>
<path d="M-0.0001714 29.7827C7.15601 23.0752 19.0525 13.9678 27.9435 9.68682C19.8333 15.0496 9.2648 23.1899 -0.0001714 29.7827Z" fill="url(#paint19_linear_26_543)"/>
<path d="M25.1262 42.6893C25.1975 42.0613 25.5757 41.4573 26.9668 40.4525C26.3604 40.0279 25.6898 39.7947 24.7053 39.7109C23.7992 40.5781 23.3427 41.1523 22.9717 42.2288C23.7778 42.1749 24.263 42.3185 25.1262 42.6893Z" fill="url(#paint20_linear_26_543)"/>
<path d="M36.3627 33.7545C36.7259 33.3617 36.8941 33.0999 36.9546 32.4617C36.2887 31.8889 35.9323 31.488 35.3875 30.7761C35.253 31.0952 35.105 31.2834 34.957 31.4062C35.6027 32.1998 35.9188 32.7889 36.3627 33.7545Z" fill="url(#paint21_linear_26_543)"/>
<path d="M4.9944 36.9164C4.32117 35.7688 4.0367 35.0506 3.83758 33.7544C3.10746 33.8287 2.5006 34.0103 1.99805 34.4149C2.03598 35.29 2.35837 36.3468 2.93677 37.7255C3.6669 37.032 4.15997 36.7761 4.9944 36.9164Z" fill="url(#paint22_linear_26_543)"/>
<path d="M13.1043 50.6315C13.4656 50.5585 13.665 50.3103 13.9827 49.9015C13.1915 49.1277 12.5437 48.0255 11.9021 46.6604C11.6342 46.9743 11.4037 47.0984 10.9863 47.2006C11.5968 48.6825 12.0453 49.4489 13.1043 50.6315Z" fill="url(#paint23_linear_26_543)"/>
<path d="M33.2183 42.6894C33.5935 42.3545 33.776 42.0794 33.9585 41.4933C33.3907 41.3019 33.0865 41.0747 32.8228 40.7039C32.4477 40.9909 32.2449 41.2541 31.9609 41.7086C32.4477 41.9359 32.7721 42.211 33.2183 42.6894Z" fill="url(#paint24_linear_26_543)"/>
<path d="M13.7133 64.5304C14.0692 64.1209 14.4381 63.8716 14.9817 63.649C14.1792 62.4826 13.6874 61.6367 13.2667 60.5593C12.6519 60.586 12.3542 60.8175 11.9854 61.2271C12.2636 62.0285 12.8978 63.2483 13.7133 64.5304Z" fill="url(#paint25_linear_26_543)"/>
</g>
<defs>
<linearGradient id="paint0_linear_26_543" x1="45.2573" y1="11.2896" x2="49.6759" y2="18.4329" gradientUnits="userSpaceOnUse">
<stop stop-color="#003400"/>
<stop offset="0.0788" stop-color="#005205"/>
<stop offset="0.1942" stop-color="#00780A"/>
<stop offset="0.3012" stop-color="#00930F"/>
<stop offset="0.3957" stop-color="#00A311"/>
<stop offset="0.4677" stop-color="#00A912"/>
<stop offset="0.6022" stop-color="#00A912"/>
<stop offset="0.6654" stop-color="#009E10"/>
<stop offset="0.7773" stop-color="#00800C"/>
<stop offset="0.9236" stop-color="#005004"/>
<stop offset="1" stop-color="#003400"/>
</linearGradient>
<linearGradient id="paint1_linear_26_543" x1="45.8816" y1="19.2774" x2="34.8976" y2="12.9141" gradientUnits="userSpaceOnUse">
<stop stop-color="#003400"/>
<stop offset="0.0788" stop-color="#005205"/>
<stop offset="0.1942" stop-color="#00780A"/>
<stop offset="0.3012" stop-color="#00930F"/>
<stop offset="0.3957" stop-color="#00A311"/>
<stop offset="0.4677" stop-color="#00A912"/>
<stop offset="0.6022" stop-color="#00A912"/>
<stop offset="0.6654" stop-color="#009E10"/>
<stop offset="0.7773" stop-color="#00800C"/>
<stop offset="0.9236" stop-color="#005004"/>
<stop offset="1" stop-color="#003400"/>
</linearGradient>
<linearGradient id="paint2_linear_26_543" x1="35.0641" y1="25.0236" x2="23.2346" y2="19.0307" gradientUnits="userSpaceOnUse">
<stop stop-color="#003400"/>
<stop offset="0.0788" stop-color="#005205"/>
<stop offset="0.1942" stop-color="#00780A"/>
<stop offset="0.3012" stop-color="#00930F"/>
<stop offset="0.3957" stop-color="#00A311"/>
<stop offset="0.4677" stop-color="#00A912"/>
<stop offset="0.6022" stop-color="#00A912"/>
<stop offset="0.6654" stop-color="#009E10"/>
<stop offset="0.7773" stop-color="#00800C"/>
<stop offset="0.9236" stop-color="#005004"/>
<stop offset="1" stop-color="#003400"/>
</linearGradient>
<linearGradient id="paint3_linear_26_543" x1="23.9457" y1="32.2801" x2="13.4529" y2="24.1252" gradientUnits="userSpaceOnUse">
<stop stop-color="#003400"/>
<stop offset="0.0788" stop-color="#005205"/>
<stop offset="0.1942" stop-color="#00780A"/>
<stop offset="0.3012" stop-color="#00930F"/>
<stop offset="0.3957" stop-color="#00A311"/>
<stop offset="0.4677" stop-color="#00A912"/>
<stop offset="0.6022" stop-color="#00A912"/>
<stop offset="0.6654" stop-color="#009E10"/>
<stop offset="0.7773" stop-color="#00800C"/>
<stop offset="0.9236" stop-color="#005004"/>
<stop offset="1" stop-color="#003400"/>
</linearGradient>
<linearGradient id="paint4_linear_26_543" x1="35.4762" y1="17.6779" x2="39.5536" y2="23.8233" gradientUnits="userSpaceOnUse">
<stop stop-color="#003400"/>
<stop offset="0.0788" stop-color="#005205"/>
<stop offset="0.1942" stop-color="#00780A"/>
<stop offset="0.3012" stop-color="#00930F"/>
<stop offset="0.3957" stop-color="#00A311"/>
<stop offset="0.4677" stop-color="#00A912"/>
<stop offset="0.6022" stop-color="#00A912"/>
<stop offset="0.6654" stop-color="#009E10"/>
<stop offset="0.7773" stop-color="#00800C"/>
<stop offset="0.9236" stop-color="#005004"/>
<stop offset="1" stop-color="#003400"/>
</linearGradient>
<linearGradient id="paint5_linear_26_543" x1="23.8235" y1="24.0188" x2="28.0511" y2="31.6768" gradientUnits="userSpaceOnUse">
<stop stop-color="#003400"/>
<stop offset="0.0788" stop-color="#005205"/>
<stop offset="0.1942" stop-color="#00780A"/>
<stop offset="0.3012" stop-color="#00930F"/>
<stop offset="0.3957" stop-color="#00A311"/>
<stop offset="0.4677" stop-color="#00A912"/>
<stop offset="0.6022" stop-color="#00A912"/>
<stop offset="0.6654" stop-color="#009E10"/>
<stop offset="0.7773" stop-color="#00800C"/>
<stop offset="0.9236" stop-color="#005004"/>
<stop offset="1" stop-color="#003400"/>
</linearGradient>
<linearGradient id="paint6_linear_26_543" x1="11.9914" y1="30.6863" x2="15.8758" y2="37.3331" gradientUnits="userSpaceOnUse">
<stop stop-color="#003400"/>
<stop offset="0.0788" stop-color="#005205"/>
<stop offset="0.1942" stop-color="#00780A"/>
<stop offset="0.3012" stop-color="#00930F"/>
<stop offset="0.3957" stop-color="#00A311"/>
<stop offset="0.4677" stop-color="#00A912"/>
<stop offset="0.6022" stop-color="#00A912"/>
<stop offset="0.6654" stop-color="#009E10"/>
<stop offset="0.7773" stop-color="#00800C"/>
<stop offset="0.9236" stop-color="#005004"/>
<stop offset="1" stop-color="#003400"/>
</linearGradient>
<linearGradient id="paint7_linear_26_543" x1="50.1945" y1="50.0895" x2="50.6518" y2="60.3229" gradientUnits="userSpaceOnUse">
<stop stop-color="#0038AB"/>
<stop offset="0.1566" stop-color="#0062C9"/>
<stop offset="0.3766" stop-color="#0097F0"/>
<stop offset="0.4839" stop-color="#00ACFF"/>
<stop offset="0.5699" stop-color="#00ACFF"/>
<stop offset="0.6371" stop-color="#00A2F8"/>
<stop offset="0.7527" stop-color="#0086E3"/>
<stop offset="0.9017" stop-color="#0059C3"/>
<stop offset="1" stop-color="#0038AB"/>
</linearGradient>
<linearGradient id="paint8_linear_26_543" x1="28.0399" y1="45.5952" x2="36.5724" y2="69.2185" gradientUnits="userSpaceOnUse">
<stop stop-color="#0038AB"/>
<stop offset="0.1566" stop-color="#0062C9"/>
<stop offset="0.3766" stop-color="#0097F0"/>
<stop offset="0.4839" stop-color="#00ACFF"/>
<stop offset="0.5699" stop-color="#00ACFF"/>
<stop offset="0.6371" stop-color="#00A2F8"/>
<stop offset="0.7527" stop-color="#0086E3"/>
<stop offset="0.9017" stop-color="#0059C3"/>
<stop offset="1" stop-color="#0038AB"/>
</linearGradient>
<linearGradient id="paint9_linear_26_543" x1="38.761" y1="46.6419" x2="48.636" y2="65.6934" gradientUnits="userSpaceOnUse">
<stop stop-color="#0038AB"/>
<stop offset="0.1566" stop-color="#0062C9"/>
<stop offset="0.3766" stop-color="#0097F0"/>
<stop offset="0.4839" stop-color="#00ACFF"/>
<stop offset="0.5699" stop-color="#00ACFF"/>
<stop offset="0.6371" stop-color="#00A2F8"/>
<stop offset="0.7527" stop-color="#0086E3"/>
<stop offset="0.9017" stop-color="#0059C3"/>
<stop offset="1" stop-color="#0038AB"/>
</linearGradient>
<linearGradient id="paint10_linear_26_543" x1="37.9227" y1="53.9291" x2="38.2007" y2="60.1512" gradientUnits="userSpaceOnUse">
<stop stop-color="#0038AB"/>
<stop offset="0.1566" stop-color="#0062C9"/>
<stop offset="0.3766" stop-color="#0097F0"/>
<stop offset="0.4839" stop-color="#00ACFF"/>
<stop offset="0.5699" stop-color="#00ACFF"/>
<stop offset="0.6371" stop-color="#00A2F8"/>
<stop offset="0.7527" stop-color="#0086E3"/>
<stop offset="0.9017" stop-color="#0059C3"/>
<stop offset="1" stop-color="#0038AB"/>
</linearGradient>
<linearGradient id="paint11_linear_26_543" x1="25.0096" y1="49.899" x2="25.4796" y2="60.4168" gradientUnits="userSpaceOnUse">
<stop stop-color="#0038AB"/>
<stop offset="0.1566" stop-color="#0062C9"/>
<stop offset="0.3766" stop-color="#0097F0"/>
<stop offset="0.4839" stop-color="#00ACFF"/>
<stop offset="0.5699" stop-color="#00ACFF"/>
<stop offset="0.6371" stop-color="#00A2F8"/>
<stop offset="0.7527" stop-color="#0086E3"/>
<stop offset="0.9017" stop-color="#0059C3"/>
<stop offset="1" stop-color="#0038AB"/>
</linearGradient>
<linearGradient id="paint12_linear_26_543" x1="52.0647" y1="25.7433" x2="63.43" y2="47.335" gradientUnits="userSpaceOnUse">
<stop stop-color="#AB3C00"/>
<stop offset="0.4677" stop-color="#FFC700"/>
<stop offset="0.5914" stop-color="#FFC700"/>
<stop offset="1" stop-color="#AB3C00"/>
</linearGradient>
<linearGradient id="paint13_linear_26_543" x1="87.6775" y1="3.88335" x2="96.5673" y2="28.8298" gradientUnits="userSpaceOnUse">
<stop stop-color="#AB3C00"/>
<stop offset="0.4677" stop-color="#FFC700"/>
<stop offset="0.5914" stop-color="#FFC700"/>
<stop offset="1" stop-color="#AB3C00"/>
</linearGradient>
<linearGradient id="paint14_linear_26_543" x1="50.8616" y1="26.3776" x2="62.2269" y2="47.9694" gradientUnits="userSpaceOnUse">
<stop stop-color="#AB3C00"/>
<stop offset="0.4677" stop-color="#FFC700"/>
<stop offset="0.5914" stop-color="#FFC700"/>
<stop offset="1" stop-color="#AB3C00"/>
</linearGradient>
<linearGradient id="paint15_linear_26_543" x1="60.4351" y1="23.9365" x2="66.5139" y2="34.9183" gradientUnits="userSpaceOnUse">
<stop stop-color="#AB3C00"/>
<stop offset="0.4677" stop-color="#FFC700"/>
<stop offset="0.5914" stop-color="#FFC700"/>
<stop offset="1" stop-color="#AB3C00"/>
</linearGradient>
<linearGradient id="paint16_linear_26_543" x1="70.9626" y1="14.551" x2="77.2065" y2="41.8989" gradientUnits="userSpaceOnUse">
<stop stop-color="#AB3C00"/>
<stop offset="0.4677" stop-color="#FFC700"/>
<stop offset="0.5914" stop-color="#FFC700"/>
<stop offset="1" stop-color="#AB3C00"/>
</linearGradient>
<linearGradient id="paint17_linear_26_543" x1="80.6991" y1="12.8451" x2="85.796" y2="22.0531" gradientUnits="userSpaceOnUse">
<stop stop-color="#AB3C00"/>
<stop offset="0.4677" stop-color="#FFC700"/>
<stop offset="0.5914" stop-color="#FFC700"/>
<stop offset="1" stop-color="#AB3C00"/>
</linearGradient>
<linearGradient id="paint18_linear_26_543" x1="54.0764" y1="34.2632" x2="57.1158" y2="39.7541" gradientUnits="userSpaceOnUse">
<stop stop-color="#AB3C00"/>
<stop offset="0.4677" stop-color="#FFC700"/>
<stop offset="0.5914" stop-color="#FFC700"/>
<stop offset="1" stop-color="#AB3C00"/>
</linearGradient>
<linearGradient id="paint19_linear_26_543" x1="3.59724" y1="16.8793" x2="24.3245" y2="22.659" gradientUnits="userSpaceOnUse">
<stop stop-color="#003400"/>
<stop offset="0.0788" stop-color="#005205"/>
<stop offset="0.1942" stop-color="#00780A"/>
<stop offset="0.3012" stop-color="#00930F"/>
<stop offset="0.3957" stop-color="#00A311"/>
<stop offset="0.4677" stop-color="#00A912"/>
<stop offset="0.6022" stop-color="#00A912"/>
<stop offset="0.6654" stop-color="#009E10"/>
<stop offset="0.7773" stop-color="#00800C"/>
<stop offset="0.9236" stop-color="#005004"/>
<stop offset="1" stop-color="#003400"/>
</linearGradient>
<linearGradient id="paint20_linear_26_543" x1="26.4089" y1="42.0015" x2="23.5006" y2="40.0212" gradientUnits="userSpaceOnUse">
<stop stop-color="#400300"/>
<stop offset="0.0709" stop-color="#750300"/>
<stop offset="0.1439" stop-color="#A50300"/>
<stop offset="0.2084" stop-color="#C80300"/>
<stop offset="0.2612" stop-color="#DD0300"/>
<stop offset="0.2957" stop-color="#E50300"/>
<stop offset="0.3376" stop-color="#EE190C"/>
<stop offset="0.3927" stop-color="#F82E18"/>
<stop offset="0.4459" stop-color="#FD3C20"/>
<stop offset="0.4946" stop-color="#FF4022"/>
<stop offset="0.5442" stop-color="#FD3B1F"/>
<stop offset="0.5995" stop-color="#F72E18"/>
<stop offset="0.6574" stop-color="#EE180C"/>
<stop offset="0.6989" stop-color="#E50300"/>
<stop offset="0.7336" stop-color="#DB0300"/>
<stop offset="0.7914" stop-color="#C20300"/>
<stop offset="0.8653" stop-color="#980300"/>
<stop offset="0.9515" stop-color="#5E0300"/>
<stop offset="1" stop-color="#3B0300"/>
</linearGradient>
<linearGradient id="paint21_linear_26_543" x1="36.3255" y1="31.6315" x2="35.2772" y2="32.6951" gradientUnits="userSpaceOnUse">
<stop stop-color="#400300"/>
<stop offset="0.0709" stop-color="#750300"/>
<stop offset="0.1439" stop-color="#A50300"/>
<stop offset="0.2084" stop-color="#C80300"/>
<stop offset="0.2612" stop-color="#DD0300"/>
<stop offset="0.2957" stop-color="#E50300"/>
<stop offset="0.3376" stop-color="#EE190C"/>
<stop offset="0.3927" stop-color="#F82E18"/>
<stop offset="0.4459" stop-color="#FD3C20"/>
<stop offset="0.4946" stop-color="#FF4022"/>
<stop offset="0.5442" stop-color="#FD3B1F"/>
<stop offset="0.5995" stop-color="#F72E18"/>
<stop offset="0.6574" stop-color="#EE180C"/>
<stop offset="0.6989" stop-color="#E50300"/>
<stop offset="0.7336" stop-color="#DB0300"/>
<stop offset="0.7914" stop-color="#C20300"/>
<stop offset="0.8653" stop-color="#980300"/>
<stop offset="0.9515" stop-color="#5E0300"/>
<stop offset="1" stop-color="#3B0300"/>
</linearGradient>
<linearGradient id="paint22_linear_26_543" x1="4.52385" y1="35.3675" x2="1.93589" y2="36.3555" gradientUnits="userSpaceOnUse">
<stop stop-color="#AB3C00"/>
<stop offset="0.3441" stop-color="#FFC700"/>
<stop offset="0.3696" stop-color="#FFCD17"/>
<stop offset="0.4069" stop-color="#FFD533"/>
<stop offset="0.4445" stop-color="#FFDA46"/>
<stop offset="0.4826" stop-color="#FFDD52"/>
<stop offset="0.5215" stop-color="#FFDE56"/>
<stop offset="0.5509" stop-color="#FFDD51"/>
<stop offset="0.5855" stop-color="#FFD943"/>
<stop offset="0.6225" stop-color="#FFD32B"/>
<stop offset="0.6612" stop-color="#FFCA0B"/>
<stop offset="0.672" stop-color="#FFC700"/>
<stop offset="1" stop-color="#AB3C00"/>
</linearGradient>
<linearGradient id="paint23_linear_26_543" x1="11.6057" y1="49.249" x2="13.2766" y2="48.4353" gradientUnits="userSpaceOnUse">
<stop stop-color="#005200"/>
<stop offset="0.1859" stop-color="#00890B"/>
<stop offset="0.3118" stop-color="#00A912"/>
<stop offset="0.3267" stop-color="#11AD12"/>
<stop offset="0.3667" stop-color="#3AB512"/>
<stop offset="0.406" stop-color="#5ABC12"/>
<stop offset="0.4438" stop-color="#71C112"/>
<stop offset="0.4795" stop-color="#7EC412"/>
<stop offset="0.5108" stop-color="#83C512"/>
<stop offset="0.55" stop-color="#7FC412"/>
<stop offset="0.5906" stop-color="#72C112"/>
<stop offset="0.632" stop-color="#5EBD12"/>
<stop offset="0.6737" stop-color="#41B712"/>
<stop offset="0.7154" stop-color="#1CAF12"/>
<stop offset="0.7419" stop-color="#00A912"/>
<stop offset="0.783" stop-color="#009E10"/>
<stop offset="0.8555" stop-color="#00800C"/>
<stop offset="0.9504" stop-color="#005004"/>
<stop offset="1" stop-color="#003400"/>
</linearGradient>
<linearGradient id="paint24_linear_26_543" x1="32.6316" y1="42.2461" x2="33.6515" y2="40.9709" gradientUnits="userSpaceOnUse">
<stop stop-color="#AB3C00"/>
<stop offset="0.3441" stop-color="#FFC700"/>
<stop offset="0.3696" stop-color="#FFCD17"/>
<stop offset="0.4069" stop-color="#FFD533"/>
<stop offset="0.4445" stop-color="#FFDA46"/>
<stop offset="0.4826" stop-color="#FFDD52"/>
<stop offset="0.5215" stop-color="#FFDE56"/>
<stop offset="0.5509" stop-color="#FFDD51"/>
<stop offset="0.5855" stop-color="#FFD943"/>
<stop offset="0.6225" stop-color="#FFD32B"/>
<stop offset="0.6612" stop-color="#FFCA0B"/>
<stop offset="0.672" stop-color="#FFC700"/>
<stop offset="1" stop-color="#AB3C00"/>
</linearGradient>
<linearGradient id="paint25_linear_26_543" x1="14.4949" y1="61.4536" x2="12.2948" y2="62.572" gradientUnits="userSpaceOnUse">
<stop stop-color="#0038AB"/>
<stop offset="0.1131" stop-color="#0062C9"/>
<stop offset="0.272" stop-color="#0097F0"/>
<stop offset="0.3495" stop-color="#00ACFF"/>
<stop offset="0.4014" stop-color="#00BFFF"/>
<stop offset="0.469" stop-color="#00D2FF"/>
<stop offset="0.5161" stop-color="#00D9FF"/>
<stop offset="0.6633" stop-color="#00B8FF"/>
<stop offset="0.7097" stop-color="#00ACFF"/>
<stop offset="0.755" stop-color="#00A2F8"/>
<stop offset="0.833" stop-color="#0086E3"/>
<stop offset="0.9337" stop-color="#0059C3"/>
<stop offset="1" stop-color="#0038AB"/>
</linearGradient>
</defs>
</svg>
