<svg width="316" height="347" viewBox="0 0 316 347" fill="none" xmlns="http://www.w3.org/2000/svg">
<ellipse cx="157.572" cy="332.779" rx="157.572" ry="14.2213" fill="#401295"/>
<path d="M176.905 142.677L179.901 153.406L181.425 158.873L207.725 253.125C207.725 253.125 214.051 250.967 222.298 247.392C223.911 246.693 225.6 245.94 227.327 245.138C240.206 239.17 255.332 230.503 259.015 221.463C264.52 207.946 248.146 157.449 232.859 140.578C225.854 132.843 205.375 135.721 191.234 138.89C189.653 139.241 188.151 139.599 186.758 139.948C180.881 141.408 176.905 142.677 176.905 142.677Z" fill="white"/>
<g opacity="0.35">
<path d="M179.902 153.407L181.426 158.874L202.309 233.712L207.727 253.126C207.727 253.126 207.859 253.081 208.109 252.993C208.179 252.967 208.264 252.937 208.354 252.906C208.424 252.88 208.505 252.852 208.584 252.823C208.646 252.804 208.707 252.78 208.769 252.76C208.792 252.749 208.821 252.743 208.844 252.733C208.957 252.692 209.084 252.647 209.215 252.597C209.244 252.59 209.272 252.579 209.304 252.566C209.412 252.526 209.526 252.485 209.648 252.441C209.813 252.383 209.982 252.319 210.161 252.253C210.287 252.204 210.424 252.157 210.56 252.106C210.701 252.053 210.842 252.001 210.988 251.948C211.171 251.88 211.362 251.806 211.561 251.735C211.96 251.582 212.382 251.425 212.827 251.252C213.222 251.105 213.633 250.945 214.063 250.776C214.559 250.581 215.079 250.381 215.615 250.167C217.601 249.377 219.865 248.448 222.299 247.392C222.772 247.188 223.253 246.976 223.739 246.763C224.077 246.614 224.425 246.459 224.771 246.304C225.607 245.929 226.466 245.54 227.327 245.139C240.211 239.17 255.333 230.504 259.011 221.465C263.547 210.335 253.249 174.13 240.93 152.27C248.87 172.27 253.879 194.892 250.46 203.281C248.77 207.429 233.824 199.812 231.83 193.215C226.69 176.201 216.749 155.414 196.914 147.702C196.4 147.5 187.712 151.685 179.902 153.407Z" fill="black"/>
</g>
<path d="M206.35 255.734L174.435 141.344L176.292 140.751C176.756 140.602 187.794 137.095 200.4 135.039C217.846 132.193 229.271 133.599 234.361 139.216C250.312 156.818 266.676 208.021 260.892 222.227C253.925 239.331 210.234 254.408 208.378 255.041L206.35 255.734ZM179.385 144.029L209.089 250.491C217.764 247.319 251.652 234.184 257.143 220.7C259.479 214.963 257.387 200.126 251.811 182.9C246.096 165.243 238.261 149.546 231.362 141.933C223.382 133.129 192.759 140.006 179.385 144.029Z" fill="black"/>
<path d="M249.697 182.275L231.923 189.644C230.336 190.302 229.391 191.945 229.629 193.646C230.501 199.876 233.261 214.159 240.47 216.802C246.454 218.996 254.016 216.018 257.274 210.709C260.918 204.77 256.986 191.164 254.713 184.536C254.006 182.475 251.71 181.441 249.697 182.275Z" fill="white"/>
<g opacity="0.35">
<path d="M229.632 193.647C230.5 199.876 233.263 214.159 240.473 216.8C246.458 218.996 254.017 216.017 257.278 210.706C259.515 207.053 258.891 200.499 257.549 194.456C257.69 197.65 257.182 200.448 256.093 202.534C249.845 214.482 239.525 206.217 239.525 206.217C239.525 206.217 239.176 209.163 238.274 209.62C234.508 211.531 231.241 198.846 229.703 192.243C229.591 192.69 229.561 193.164 229.632 193.647Z" fill="black"/>
</g>
<path d="M244.706 219.549C243.016 219.549 241.344 219.277 239.774 218.701C231.812 215.781 228.745 201.925 227.625 193.925C227.26 191.314 228.709 188.785 231.149 187.774L248.923 180.406C250.397 179.795 252.075 179.82 253.529 180.475C254.981 181.131 256.111 182.372 256.628 183.879C259.813 193.171 262.811 205.552 258.998 211.766C256.035 216.594 250.271 219.549 244.706 219.549ZM251.146 184.009C250.918 184.009 250.691 184.054 250.472 184.144L232.698 191.512C231.96 191.816 231.523 192.579 231.633 193.364C233.3 205.272 236.864 213.324 241.167 214.901C246.104 216.712 252.691 214.306 255.55 209.649C257.814 205.959 256.786 196.816 252.799 185.191C252.641 184.728 252.308 184.363 251.864 184.163C251.633 184.061 251.39 184.009 251.146 184.009ZM249.697 182.275H249.703H249.697Z" fill="black"/>
<path d="M250.098 218.155C249.633 218.061 249.379 217.97 249.05 217.861C248.744 217.751 248.445 217.637 248.159 217.505C247.581 217.252 247.034 216.961 246.51 216.64C245.469 215.993 244.493 215.265 243.643 214.423C241.91 212.771 240.55 210.823 239.518 208.764C239.023 207.724 238.547 206.683 238.184 205.604C237.77 204.537 237.483 203.477 237.169 202.399C236.87 201.324 236.605 200.234 236.398 199.13C236.298 198.576 236.205 198.021 236.14 197.457C236.077 196.883 236.024 196.351 236.046 195.703C236.057 195.409 236.303 195.178 236.597 195.189C236.873 195.198 237.092 195.416 237.111 195.685L237.115 195.743C237.143 196.193 237.241 196.753 237.35 197.26C237.461 197.78 237.6 198.297 237.744 198.813C238.041 199.845 238.393 200.864 238.781 201.872C239.177 202.869 239.568 203.902 240.043 204.843C240.475 205.813 241.006 206.723 241.54 207.621C242.648 209.393 244.011 210.972 245.587 212.206C246.36 212.844 247.216 213.352 248.082 213.784C248.516 213.998 248.962 214.18 249.406 214.325C249.628 214.404 249.848 214.463 250.067 214.518C250.264 214.567 250.54 214.618 250.615 214.62C251.607 214.646 252.39 215.472 252.363 216.464C252.337 217.456 251.512 218.239 250.519 218.213C250.417 218.21 250.317 218.199 250.22 218.18L250.098 218.155Z" fill="black"/>
<path d="M204.414 147.294C206.563 146.245 208.713 145.264 210.891 144.307C213.067 143.353 215.262 142.434 217.487 141.577C219.714 140.719 221.96 139.894 224.27 139.185C226.581 138.478 228.925 137.829 231.43 137.446C232.535 137.277 233.569 138.036 233.738 139.141C233.907 140.247 233.148 141.28 232.043 141.449C231.997 141.456 231.952 141.461 231.907 141.466L231.887 141.467C229.706 141.646 227.448 142.094 225.209 142.616C222.964 143.137 220.726 143.787 218.497 144.473C216.267 145.16 214.049 145.913 211.843 146.703C209.641 147.494 207.433 148.322 205.275 149.196L205.264 149.201C204.73 149.417 204.122 149.159 203.905 148.626C203.698 148.112 203.928 147.533 204.414 147.294Z" fill="black"/>
<path d="M102.517 153.618C104.753 158.655 107.962 163.647 108.98 166.303L103.725 175.564L97.77 186.055C94.7698 186.401 91.8908 186.66 89.1154 186.825C39.5099 189.891 24.9285 165.929 23.2975 154.471C20.07 131.784 33.0014 117.39 38.9781 111.533C39.8858 110.645 40.9101 109.75 42.0402 108.859C61.7692 93.3163 113.405 78.7683 128.335 99.4822C136.747 111.143 130.942 131.116 104.806 139.001C98.4053 140.929 99.7055 147.304 102.517 153.618Z" fill="white"/>
<g opacity="0.35">
<path d="M105.963 160.418C107.278 162.811 108.44 164.89 108.981 166.303L97.7701 186.055C41.1838 192.609 25.019 166.571 23.2976 154.471C22.7575 150.69 22.6719 147.14 22.9229 143.828C22.9883 144.515 24.2041 153.527 24.3719 154.221C27.5244 167.252 57.5497 183.533 66.1995 179.173C68.3266 178.101 69.9457 176.817 70.9295 176.483C72.7223 175.872 73.6336 178.434 76.4161 178.26C78.9632 178.101 79.2213 173.806 81.1854 174.354C82.7629 174.795 84.7008 178.636 87.0134 178.506L105.963 160.418Z" fill="black"/>
</g>
<path d="M80.5188 189.131C63.4749 189.131 49.5133 185.731 38.872 178.965C27.4134 171.681 22.2777 161.684 21.2927 154.755C18.9146 138.037 24.3881 123.008 37.5622 110.088C49.9653 97.9213 82.9945 85.3683 106.991 87.4168C117.699 88.3305 125.432 91.9922 129.979 98.2973C134.08 103.984 135.059 111.296 132.668 118.358C129.227 128.516 119.284 136.745 105.391 140.935C90.4797 145.432 73.099 152.911 71.0207 157.153C70.9244 157.351 70.8982 157.488 70.9149 157.532C71.3158 158.575 70.7947 159.746 69.7526 160.147C68.7105 160.549 67.5399 160.028 67.1378 158.984C66.8332 158.192 66.6286 156.921 67.3864 155.374C71.4799 147.018 102.886 137.465 104.221 137.062C116.848 133.254 125.819 125.963 128.835 117.06C130.802 111.252 130.023 105.276 126.697 100.663C122.871 95.3577 116.125 92.2575 106.646 91.4473C84.0758 89.5189 51.9425 101.648 40.3947 112.975C28.1902 124.945 23.1104 138.81 25.2982 154.184C27.1481 167.19 44.6286 190.172 97.5378 184.043C98.6418 183.911 99.6518 184.71 99.7802 185.82C99.9087 186.93 99.1129 187.934 98.0029 188.063C91.8596 188.775 86.028 189.131 80.5188 189.131Z" fill="black"/>
<path d="M287.345 93.5341C286.654 97.1911 285.183 101.157 282.879 105.308C266.048 135.662 206.995 159.754 206.995 159.754C206.995 159.754 210.347 170.273 217.605 188.982C217.773 189.42 217.947 189.858 218.12 190.305C220.363 196.05 222.959 202.534 225.924 209.689C229.398 218.067 233.38 227.373 237.9 237.497C248.755 261.835 258.096 293.93 258.096 293.93C258.096 293.93 284.025 302.74 283.656 318.761C283.638 319.617 283.544 320.493 283.365 321.386C280.317 336.787 220.904 333.563 215.924 326.269C209.957 317.537 207.553 309.979 201.666 296.698C197.308 286.866 192.695 276.709 182.547 268.476C171.07 260.041 152.2 259.945 140.005 261.071C122.47 262.692 119.574 273.529 117.37 281.38C113.692 294.449 115.897 321.369 103.421 329.048C96.6024 333.247 40.3991 339.746 37.1288 320.454C36.4661 316.533 37.1621 313.251 38.6206 310.528C43.4148 301.566 56.4485 298.618 56.4485 298.618C56.4485 298.618 55.1458 277.497 56.4307 265.879C59.6022 237.167 95.3092 224.007 95.3092 224.007C95.3092 224.007 95.1831 221.226 93.8364 212.231C92.1698 201.117 90.4186 192.542 89.1136 186.824C87.8621 181.369 87.0115 178.503 87.0115 178.503L83.7114 168.838L81.8473 163.377L102.514 153.617L180.701 116.692C183.244 115.113 186.064 113.246 189.106 111.185C212.247 95.4863 248.178 68.5434 271.888 71.897C283.975 73.6065 289.519 82.0708 287.345 93.5341Z" fill="white"/>
<g opacity="0.35">
<path d="M287.346 93.5339C286.654 97.1909 285.183 101.157 282.88 105.308C266.049 135.661 206.995 159.754 206.995 159.754C206.995 159.754 210.348 170.273 217.606 188.982L213.826 190.715C209.465 177.236 194.931 184.571 193.967 179.121C193.483 176.371 202.069 173.685 199.36 168.498C196.656 163.311 183.478 166.549 183.702 162.363C183.879 159.153 191.014 159.648 195.927 158.349C200.84 157.05 193.283 150.041 192.761 147.752C191.936 144.172 199.856 147.256 209.355 146.534C248.336 143.578 277.118 108.071 287.346 93.5339Z" fill="black"/>
</g>
<g opacity="0.35">
<path d="M283.658 318.761C283.64 319.616 283.546 320.493 283.367 321.385C280.319 336.786 220.906 333.562 215.926 326.269C209.959 317.537 207.555 309.979 201.668 296.698C197.31 286.865 192.697 276.708 182.549 268.476C171.072 260.04 152.202 259.945 140.007 261.07C122.472 262.692 119.576 273.528 117.372 281.38C113.693 294.448 115.899 321.368 103.423 329.048C96.6043 333.247 40.401 339.746 37.1307 320.454C36.4681 316.533 37.164 313.25 38.6225 310.527C39.2471 314.201 42.0963 318.237 50.3286 320.851C68.8298 326.723 99.9912 327.815 104.185 314.376C108.378 300.941 105.635 288.599 105.791 277.127C105.914 268.011 104.807 256.169 110.704 252.567C113.802 250.675 117.592 254.944 122.409 254.343C127.221 253.739 127.286 242.77 130.684 242.616C134.875 242.419 134.231 249.8 142.999 252.745C150.914 255.404 171.211 254.975 178.41 247.852C185.282 241.052 183.017 253.144 184.833 256.644C188.328 263.393 202.216 252.172 204.196 257.298C205.105 259.657 201.704 268.351 203.346 278.531C205.399 291.264 213.318 313.034 229.065 321.146C240.251 326.912 271.839 328.166 283.658 318.761Z" fill="black"/>
</g>
<path d="M71.0566 335.623C61.3004 335.623 51.4669 334.497 44.5836 331.378C39.0815 328.885 35.9028 325.322 35.1343 320.79C32.7872 306.937 45.8387 299.509 54.3363 297.075C54.0567 291.812 53.3287 275.535 54.4207 265.657C57.3615 239.053 86.2364 225.554 93.1696 222.681C93.009 221.064 92.645 217.922 91.8361 212.53C88.6407 191.223 85.1075 179.199 85.0718 179.08C84.7541 178.009 85.3644 176.882 86.4351 176.565C87.507 176.245 88.6324 176.857 88.95 177.928C89.0975 178.423 92.5939 190.31 95.8368 211.93C97.1859 220.926 97.3262 223.8 97.3322 223.918L97.3988 225.395L96.0117 225.907C95.6667 226.035 61.4396 238.989 58.4429 266.102C57.1926 277.409 58.456 298.285 58.4691 298.494L58.575 300.212L56.8964 300.592C56.0696 300.781 36.6297 305.397 39.1244 320.112C39.6538 323.236 42.0521 325.787 46.2539 327.69C62.678 335.133 98.0495 329.98 102.362 327.325C110.181 322.511 111.705 308.469 113.05 296.081C113.669 290.375 114.254 284.986 115.422 280.829L115.479 280.628C117.699 272.729 121.052 260.792 139.822 259.057C150.88 258.035 171.291 257.686 183.749 266.846L183.825 266.905C194.52 275.578 199.301 286.361 203.518 295.875C205.044 299.319 206.358 302.425 207.515 305.165C210.864 313.089 213.284 318.814 217.594 325.126C220.062 328.738 247.868 332.744 267.926 328.64C275.953 326.997 280.732 324.281 281.382 320.992C284.497 305.257 257.714 295.934 257.444 295.841L256.449 295.502L256.154 294.491C256.061 294.171 246.725 262.248 236.051 238.32C214.768 190.61 205.165 160.662 205.071 160.365L204.503 158.585L206.234 157.878C206.818 157.64 264.82 133.702 281.11 104.323C285.987 95.5254 287.107 87.5358 284.262 81.8231C282.112 77.5036 277.736 74.7638 271.611 73.8966C251.055 70.9927 220.147 92.2812 197.577 107.827C191.776 111.823 186.297 115.597 181.775 118.407C180.826 118.997 179.579 118.704 178.989 117.756C178.399 116.807 178.69 115.56 179.64 114.97C184.081 112.211 189.522 108.463 195.282 104.495C218.4 88.572 250.064 66.7611 272.177 69.8911C279.681 70.9522 285.113 74.4545 287.885 80.0196C291.341 86.96 290.192 96.288 284.649 106.284C269.104 134.321 219.634 156.567 209.506 160.894C211.861 167.935 221.475 195.706 239.747 236.671C249.47 258.467 258.074 286.76 259.746 292.37C265.06 294.367 288.804 304.337 285.352 321.777C284.336 326.912 278.746 330.554 268.738 332.602C251.093 336.215 218.794 334.056 214.252 327.406C209.714 320.761 207.227 314.879 203.787 306.738C202.635 304.013 201.33 300.925 199.817 297.514C195.789 288.429 191.224 278.132 181.311 270.077C169.926 261.738 150.668 262.116 140.194 263.085C124.194 264.565 121.521 274.078 119.374 281.723L119.317 281.925C118.239 285.758 117.671 290.984 117.072 296.518C115.628 309.83 113.991 324.919 104.483 330.772C100.957 332.945 86.102 335.623 71.0566 335.623Z" fill="black"/>
<g opacity="0.35">
<path d="M189.109 109.4C185.824 137.233 168.133 159.521 144.535 169.428C143.233 169.973 141.91 170.482 140.572 170.957C136.897 172.244 133.097 173.243 129.202 173.917C125.978 174.478 122.679 174.824 119.338 174.933C115.46 175.069 111.522 174.892 107.539 174.378C106.257 174.205 104.984 174.01 103.726 173.78C103.69 173.775 103.661 173.766 103.625 173.761C100.978 173.273 98.3835 172.647 95.8436 171.89C91.6216 170.63 87.572 169.002 83.7152 167.055C76.1741 163.247 69.3789 158.199 63.5521 152.198C51.8829 140.179 44.1038 124.36 42.041 107.075C61.77 91.5319 113.406 76.9838 128.336 97.6978C136.748 109.359 130.943 129.331 104.806 137.216C98.4049 139.144 99.704 145.519 102.516 151.832L180.704 114.907C183.246 113.328 186.068 111.462 189.109 109.4Z" fill="black"/>
</g>
<path d="M55.8528 140.323C65.4044 149.919 77.3936 157.169 90.9864 161.026C93.7583 161.811 96.5896 162.458 99.4804 162.952C100.887 163.197 102.314 163.399 103.757 163.576C108.105 164.088 112.412 164.243 116.653 164.063C120.309 163.917 123.917 163.516 127.449 162.89C131.716 162.136 135.88 161.036 139.909 159.63C141.377 159.113 142.826 158.557 144.257 157.966C170.433 147.074 190.115 122.749 193.656 92.5883C198.881 48.1601 167.096 7.9134 122.674 2.68613C114.118 1.68565 105.706 2.04493 97.6817 3.6212C96.7419 3.79607 95.8033 3.9995 94.8706 4.22196C92.3723 4.80013 89.9157 5.49487 87.5067 6.30145C81.9356 8.16918 76.6156 10.6353 71.6358 13.6237C66.6535 16.6049 62.0021 20.1179 57.7765 24.0853C56.4322 25.3452 55.1295 26.6502 53.8697 28.0064C51.9841 30.0383 50.1961 32.1618 48.5199 34.3936C40.1413 45.4798 34.5107 58.8751 32.7738 73.6766C29.7688 99.2324 39.0099 123.401 55.8528 140.323Z" fill="white"/>
<path d="M113.275 164.35C110.099 164.35 106.901 164.163 103.732 163.791C102.146 163.595 100.744 163.391 99.4446 163.164C96.6037 162.678 93.7391 162.028 90.9292 161.232C77.6516 157.465 65.4697 150.287 55.7016 140.474C38.0831 122.772 29.6485 98.4164 32.5631 73.6505C34.2441 59.3249 39.7033 45.7059 48.3508 34.264C49.9842 32.0905 51.7889 29.9361 53.7149 27.8601C54.9521 26.5278 56.2702 25.2049 57.6312 23.9284C61.8675 19.9514 66.5428 16.423 71.5273 13.4394C76.5547 10.4224 81.9093 7.95274 87.4399 6.09809C89.8454 5.29271 92.3294 4.59082 94.824 4.01266C95.8174 3.77592 96.7405 3.57844 97.6435 3.40951C105.832 1.80112 114.262 1.48587 122.7 2.47208C167.173 7.70529 199.099 48.1411 193.87 92.6109C190.448 121.755 171.47 146.873 144.34 158.161C142.91 158.752 141.444 159.314 139.98 159.83C135.896 161.255 131.693 162.355 127.487 163.098C123.893 163.736 120.251 164.131 116.661 164.275C115.537 164.326 114.407 164.35 113.275 164.35ZM56.0049 140.171C65.7207 149.932 77.8384 157.073 91.0457 160.82C93.8402 161.611 96.6906 162.258 99.5171 162.741C100.81 162.966 102.206 163.171 103.783 163.365C108.059 163.867 112.385 164.031 116.643 163.85C120.214 163.707 123.837 163.314 127.412 162.679C131.596 161.939 135.777 160.846 139.839 159.429C141.294 158.917 142.753 158.357 144.176 157.769C171.163 146.54 190.041 121.554 193.445 92.5634C198.647 48.3279 166.889 8.10383 122.651 2.89916C114.259 1.91771 105.872 2.23177 97.7244 3.83064C96.8262 3.99838 95.9102 4.19349 94.9228 4.43022C92.4412 5.00482 89.9703 5.70314 87.5767 6.50495C82.0747 8.35008 76.7498 10.8067 71.7486 13.807C66.7902 16.7739 62.1399 20.2845 57.925 24.2413C56.5712 25.5106 55.2602 26.8263 54.029 28.1516C52.1136 30.2156 50.3173 32.3594 48.6934 34.5209C40.0912 45.9022 34.6616 59.451 32.989 73.7005C30.0887 98.3355 38.4792 122.564 56.0049 140.171Z" fill="black"/>
<g opacity="0.35">
<path d="M193.655 92.5872C190.119 122.749 170.431 147.077 144.255 157.966C142.823 158.56 141.376 159.115 139.909 159.63C135.88 161.039 131.715 162.135 127.45 162.892C123.915 163.516 120.307 163.92 116.654 164.065C112.41 164.246 108.106 164.09 103.755 163.58C102.314 163.398 100.886 163.198 99.479 162.957C96.587 162.461 93.758 161.809 90.985 161.026C77.391 157.169 65.4018 149.923 55.849 140.323C50.6003 135.051 46.088 129.072 42.4561 122.57C51.7804 131.52 63.2878 138.284 76.2561 141.964C79.0279 142.754 81.8581 143.399 84.7501 143.895C86.1538 144.14 87.5814 144.34 89.0256 144.518C93.3773 145.029 97.6814 145.185 101.92 145.006C105.577 144.856 109.182 144.457 112.716 143.833C116.982 143.075 121.149 141.977 125.175 140.572C126.646 140.054 128.093 139.498 129.524 138.905C155.701 128.017 175.384 103.692 178.925 73.5256C180.997 55.9285 177.254 38.9904 169.229 24.6267C186.929 41.5957 196.741 66.364 193.655 92.5872Z" fill="black"/>
</g>
<path d="M113.276 165.784C110.044 165.784 106.79 165.594 103.565 165.215C101.947 165.016 100.522 164.806 99.1977 164.577C96.3116 164.083 93.3958 163.422 90.5383 162.613C77.024 158.779 64.6256 151.473 54.685 141.486C36.7559 123.473 28.1727 98.6864 31.1385 73.4839C32.8492 58.9061 38.406 45.0456 47.2069 33.4002C48.8676 31.1899 50.7044 28.9974 52.6638 26.8858C53.9248 25.5284 55.2655 24.1829 56.6514 22.8839C60.9615 18.8379 65.7189 15.2464 70.7915 12.2104C75.9069 9.14115 81.3555 6.62745 86.9848 4.74068C89.4343 3.91983 91.9623 3.20605 94.501 2.61837C95.5086 2.37806 96.4544 2.17463 97.3811 2.00213C105.703 0.367571 114.282 0.0463684 122.867 1.05042C168.126 6.37524 200.617 47.526 195.294 92.7822C191.812 122.44 172.5 148.002 144.892 159.49C143.436 160.092 141.945 160.663 140.458 161.188C136.297 162.64 132.019 163.758 127.736 164.516C124.08 165.165 120.373 165.568 116.719 165.713C115.575 165.759 114.427 165.784 113.276 165.784ZM57.0214 139.16C66.5647 148.748 78.4658 155.76 91.4365 159.441C94.1821 160.218 96.9814 160.853 99.758 161.329C101.032 161.552 102.404 161.751 103.957 161.943C108.15 162.436 112.401 162.596 116.582 162.419C120.091 162.279 123.649 161.892 127.16 161.27C131.269 160.543 135.376 159.469 139.365 158.077C140.791 157.573 142.227 157.024 143.627 156.445C170.132 145.415 188.676 120.873 192.019 92.398C197.129 48.9476 165.934 9.43856 122.481 4.3255C114.237 3.3607 106 3.66882 97.9997 5.24033C97.1122 5.40569 96.2188 5.59722 95.254 5.82682C92.8069 6.39428 90.3801 7.07951 88.0305 7.86586C82.6272 9.67768 77.3975 12.0903 72.4843 15.0382C67.6128 17.954 63.0445 21.4016 58.9046 25.2881C57.5734 26.536 56.2862 27.828 55.0775 29.1283C53.1955 31.1566 51.4325 33.2611 49.8372 35.3834C41.386 46.5648 36.0529 59.8721 34.41 73.8682C31.5655 98.0666 39.8062 121.864 57.0214 139.16Z" fill="black"/>
<path d="M113.275 166.263C110.025 166.263 106.753 166.071 103.508 165.69C101.88 165.49 100.448 165.281 99.1151 165.048C96.2136 164.552 93.2811 163.887 90.407 163.073C76.813 159.216 64.3444 151.869 54.3455 141.824C36.3118 123.707 27.6797 98.7767 30.6622 73.4279C32.3836 58.7656 37.9713 44.8243 46.8234 33.1111C48.4925 30.8888 50.3412 28.6832 52.3112 26.5597C53.5794 25.1952 54.9284 23.8402 56.3227 22.534C60.6577 18.4643 65.4424 14.8525 70.5448 11.7999C75.6888 8.7128 81.1694 6.18481 86.8309 4.28615C89.2947 3.46054 91.8381 2.74319 94.3911 2.15075C95.4035 1.90925 96.3575 1.70464 97.2914 1.53095C105.656 -0.111939 114.287 -0.435525 122.92 0.574477C168.441 5.93023 201.119 47.3189 195.767 92.8369C192.265 122.667 172.841 148.375 145.073 159.93C143.609 160.536 142.11 161.109 140.614 161.637C136.427 163.098 132.124 164.223 127.816 164.985C124.139 165.637 120.411 166.042 116.735 166.189C115.588 166.238 114.433 166.263 113.275 166.263ZM57.36 138.822C66.845 148.351 78.6748 155.323 91.5669 158.98C94.2959 159.753 97.0797 160.383 99.8384 160.856C101.105 161.077 102.47 161.276 104.015 161.466C108.179 161.955 112.406 162.114 116.561 161.938C120.05 161.799 123.587 161.415 127.076 160.796C131.16 160.074 135.242 159.007 139.207 157.623C140.624 157.124 142.052 156.576 143.443 156.001C169.788 145.038 188.22 120.645 191.543 92.3396C196.623 49.151 165.616 9.87983 122.424 4.79769C114.229 3.83884 106.042 4.14577 98.0897 5.70658C97.2058 5.87194 96.3195 6.06109 95.363 6.2895C92.9278 6.85339 90.5152 7.53505 88.1812 8.31664C82.8111 10.1178 77.6124 12.5161 72.729 15.445C67.8859 18.3429 63.3451 21.7703 59.2313 25.633C57.9072 26.8738 56.6284 28.1574 55.428 29.4506C53.5567 31.4658 51.8044 33.5584 50.2198 35.6676C41.8198 46.7824 36.5176 60.0088 34.8854 73.9204C32.0576 97.9761 40.2483 121.631 57.36 138.822Z" fill="black"/>
<path d="M72.2598 153.035C127.151 171.422 182.382 130.494 169.465 74.6318C160.677 36.6264 116.681 15.8874 80.7193 26.6656C54.5461 34.51 32.4248 53.6168 33.4943 97.5668C33.4943 97.5668 36.9716 116.95 45.7463 127.95C54.5211 138.951 64.9114 148.168 64.9114 148.168L72.2598 153.035Z" fill="black"/>
<path d="M169.465 74.6329C182.382 130.494 127.149 171.422 72.2607 153.037L70.7725 152.049C123.489 146.224 164.555 101.527 152.546 44.804C160.691 52.8197 166.751 62.9055 169.465 74.6329Z" fill="#1E1E1E"/>
<path d="M113.276 166.263C110.024 166.263 106.753 166.071 103.509 165.69C101.88 165.491 100.448 165.281 99.1153 165.048C96.2137 164.552 93.2813 163.887 90.4071 163.073C76.8131 159.216 64.3445 151.869 54.3456 141.824C36.3131 123.707 27.6799 98.7768 30.6635 73.428C32.3837 58.7669 37.9726 44.8256 46.8247 33.1124L46.958 32.9363L47.1245 32.7912C55.1974 25.7592 65.3878 20.3654 77.4103 16.7632C98.8274 10.3439 123.716 13.5405 143.986 25.3155C162.615 36.1364 175.35 52.8009 179.843 72.2384C184.725 93.3628 181.467 113.603 170.42 130.772C158.872 148.719 139.429 161.615 117.074 166.151L116.741 166.191C115.592 166.238 114.434 166.263 113.276 166.263ZM57.3602 138.822C66.8451 148.351 78.6749 155.323 91.567 158.98C94.296 159.753 97.0798 160.383 99.8386 160.856C101.106 161.077 102.47 161.276 104.015 161.466C108.123 161.949 112.291 162.11 116.394 161.945C137.561 157.607 155.941 145.412 166.843 128.468C177.253 112.286 180.316 93.1725 175.698 73.1925C171.473 54.9113 159.451 39.214 141.849 28.9891C122.576 17.7946 98.944 14.7456 78.6309 20.8329C67.2746 24.2365 57.6718 29.2877 50.0831 35.8497C41.764 46.9229 36.5094 60.0839 34.8855 73.9217C32.0577 97.9762 40.2484 121.631 57.3602 138.822Z" fill="black"/>
<path d="M99.2145 159.601C90.0519 159.601 80.7145 158.109 71.5852 155.051L71.3199 154.962L63.5028 149.759C63.0733 149.377 52.8745 140.293 44.0867 129.276C35.0799 117.985 31.5491 98.7542 31.4039 97.9416L31.3718 97.6181C30.4368 59.1583 46.8347 34.6005 80.1125 24.6278C99.2276 18.8985 121.439 21.7501 139.528 32.257C156.158 41.9156 167.527 56.7944 171.54 74.1525C177.334 99.2134 170.067 123.206 151.601 139.979C137.461 152.823 118.74 159.601 99.2145 159.601ZM73.2007 151.107C100.247 160.069 129.168 154.61 148.742 136.832C166.034 121.125 172.833 98.6281 167.396 75.1113C163.65 58.9108 152.994 44.998 137.391 35.9353C120.3 26.009 99.343 23.3049 81.3331 28.7023C50.1681 38.0422 34.7885 61.1378 35.6188 97.3444C35.9674 99.1693 39.4828 116.684 47.4117 126.624C55.4905 136.752 65.0933 145.471 66.2175 146.481L73.2007 151.107Z" fill="black"/>
<path d="M203.305 85.3468C201.321 90.4575 197.901 94.4464 193.297 96.3629C182.541 100.839 169.409 92.2907 163.963 77.2751C163.514 76.0379 163.13 74.7935 162.815 73.5539C159.267 59.722 163.709 46.0745 173.576 41.9679C184.332 37.4913 197.469 46.034 202.915 61.0556C206.032 69.6495 205.956 78.504 203.305 85.3468Z" fill="white"/>
<g opacity="0.35">
<path d="M203.305 85.347C201.321 90.4577 197.9 94.4465 193.297 96.363C182.541 100.84 169.409 92.2909 163.962 77.2753C163.514 76.0381 163.13 74.7937 162.814 73.5541C165.372 75.7775 170.689 78.7849 175.596 71.314L187.968 70.9512C187.967 70.95 197.494 76.4128 203.305 85.347Z" fill="black"/>
</g>
<path d="M187.31 99.6869C184.608 99.6869 181.84 99.0814 179.093 97.8727C171.591 94.5738 165.348 87.3301 161.963 77.9962C156.144 61.948 160.987 44.9041 172.759 40.0027C177.463 38.0446 182.658 38.2005 187.783 40.4548C195.285 43.7525 201.528 50.9974 204.913 60.3313C210.732 76.3795 205.889 93.4234 194.117 98.3248C191.935 99.2336 189.647 99.6869 187.31 99.6869ZM179.564 42.9019C177.777 42.9019 176.04 43.2445 174.393 43.9297C164.686 47.9698 160.904 62.6023 165.96 76.5472C168.906 84.6713 174.456 91.1881 180.803 93.9802C184.84 95.7539 188.878 95.8991 192.482 94.3989C202.188 90.3577 205.97 75.7264 200.914 61.7815C197.969 53.6574 192.42 47.1406 186.071 44.3485C183.88 43.3861 181.687 42.9019 179.564 42.9019Z" fill="black"/>
<path d="M196.574 91.3378C205.724 88.8923 210.484 76.9663 207.206 64.7005C203.928 52.4347 193.853 44.4738 184.702 46.9193C175.552 49.3649 170.791 61.2908 174.069 73.5567C177.348 85.8225 187.423 93.7834 196.574 91.3378Z" fill="white"/>
<path d="M193.267 91.9946C192.63 91.9946 191.984 91.9506 191.331 91.8614C181.532 90.5242 173.233 79.2512 172.831 66.7302C172.606 59.7185 174.872 53.5383 179.048 49.7731C182.122 47.0025 185.891 45.8283 189.944 46.3827C199.743 47.7198 208.042 58.9928 208.444 71.5138C208.669 78.5255 206.402 84.7057 202.227 88.4709C199.649 90.7942 196.582 91.9946 193.267 91.9946ZM188.012 46.6944C184.807 46.6944 181.84 47.8555 179.345 50.1039C175.267 53.781 173.053 59.8363 173.274 66.716C173.669 79.0299 181.797 90.1126 191.39 91.4212C195.312 91.9541 198.955 90.8216 201.929 88.1402C206.007 84.463 208.221 78.4077 208 71.5281C207.605 59.2141 199.477 48.1326 189.884 46.8228C189.252 46.7372 188.627 46.6944 188.012 46.6944Z" fill="black"/>
<g opacity="0.35">
<path d="M178.727 83.7981C176.288 80.1888 174.832 75.8977 174.343 71.5496C180.596 79.3108 189.967 80.0044 195.96 72.8332C199.834 68.2008 201.401 61.3473 200.641 54.6199C201.038 55.1064 201.421 55.6323 201.791 56.1783C207.995 65.3718 207.862 79.0074 201.49 86.6342C195.121 94.2622 184.928 92.9869 178.727 83.7981Z" fill="black"/>
</g>
<path d="M194.198 93.7302C192.19 93.7302 190.123 93.2794 188.064 92.3788C182.007 89.7295 176.695 83.4149 173.854 75.4848C169.015 61.974 172.474 48.3051 181.729 44.3662C185.22 42.8804 189.105 42.9886 192.968 44.6779C199.026 47.3272 204.337 53.6418 207.177 61.572C212.016 75.0827 208.557 88.7516 199.302 92.6905C197.674 93.3841 195.957 93.7302 194.198 93.7302ZM186.835 47.5866C185.637 47.5866 184.482 47.8174 183.396 48.2801C176.331 51.2875 173.847 62.8484 177.86 74.0513C180.313 80.8988 184.764 86.2938 189.769 88.4828C192.533 89.6902 195.253 89.7925 197.638 88.7778C204.704 85.7704 207.188 74.2095 203.175 63.0066C200.722 56.1591 196.27 50.7641 191.266 48.5752C189.761 47.9161 188.268 47.5866 186.835 47.5866Z" fill="black"/>
<g opacity="0.5">
<path d="M104.682 36.535C104.682 36.535 71.6872 48.7621 58.9878 73.6719C58.9747 73.6981 58.9616 73.7243 58.9474 73.7504C56.279 78.9955 55.0799 84.8688 55.4284 90.7432C55.89 98.5115 57.3461 103.798 58.8082 108.402C63.2598 122.402 67.9636 128.13 67.9636 128.13C57.6495 123.264 50.4914 116.293 46.6691 104.669C46.2956 103.522 45.9518 102.326 45.6389 101.087C45.5651 100.802 45.4997 100.517 45.4366 100.229C45.4295 100.228 45.4307 100.222 45.4355 100.212C44.9774 97.6574 44.5016 94.2776 44.2839 90.4208C43.6189 78.7885 45.2653 62.8165 56.687 52.0157C78.0434 31.8193 105.369 34.7065 104.682 36.535Z" fill="white"/>
</g>
<g opacity="0.5">
<path d="M147.587 73.1679C152.623 69.9449 153.662 62.5745 149.906 56.7056C146.151 50.8368 139.023 48.6918 133.987 51.9148C128.95 55.1378 127.912 62.5082 131.667 68.377C135.423 74.2459 142.55 76.3909 147.587 73.1679Z" fill="white"/>
</g>
<g opacity="0.5">
<path d="M156.313 85.9787C158.273 84.477 158.444 81.4082 156.694 79.1244C154.944 76.8406 151.936 76.2065 149.977 77.7082C148.017 79.2099 147.846 82.2787 149.596 84.5625C151.346 86.8463 154.353 87.4804 156.313 85.9787Z" fill="white"/>
</g>
<path d="M95.1907 219.183C101.112 219.183 105.912 214.384 105.912 208.462C105.912 202.541 101.112 197.741 95.1907 197.741C89.2697 197.741 84.4697 202.541 84.4697 208.462C84.4697 214.384 89.2697 219.183 95.1907 219.183Z" fill="white"/>
<g opacity="0.35">
<path d="M84.6945 210.636C85.8961 216.434 91.5683 220.166 97.3666 218.965C103.165 217.763 106.894 212.083 105.693 206.284C105.361 204.683 104.685 203.23 103.754 202.005C102.803 205.9 99.6923 209.111 95.5048 209.979C91.3173 210.848 87.1857 209.137 84.7743 205.938C84.4043 207.433 84.3614 209.035 84.6945 210.636Z" fill="black"/>
</g>
<path d="M95.1887 221.208C89.275 221.208 83.9585 217.061 82.7118 211.049C82.0206 207.715 82.6701 204.312 84.5379 201.466C86.4068 198.621 89.2714 196.673 92.6048 195.982C99.4845 194.559 106.244 198.993 107.67 205.875C109.097 212.756 104.659 219.515 97.7773 220.942C96.9101 221.121 96.0428 221.208 95.1887 221.208ZM86.6733 210.228C87.6464 214.925 92.261 217.953 96.9565 216.98C101.653 216.007 104.682 211.394 103.709 206.697C102.736 202 98.1247 198.974 93.4256 199.945C91.1499 200.416 89.1953 201.746 87.92 203.687C86.6447 205.63 86.2022 207.952 86.6733 210.228Z" fill="black"/>
<path d="M108.569 235.26L162.729 231.046C169.138 230.548 173.98 224.894 173.483 218.476L171.238 189.656C170.801 184.037 166.409 179.631 161.017 178.957C160.253 178.856 159.468 178.842 158.668 178.903L104.517 183.116C98.0991 183.613 93.2572 189.269 93.7628 195.686L95.5354 218.513L95.9993 224.507C96.4966 230.924 102.158 235.757 108.569 235.26Z" fill="white"/>
<path d="M215.779 182.066C215.779 182.066 222.966 181.92 225.135 190.215C226.518 195.503 223.541 201.526 223.541 201.526C223.541 201.526 203.738 212.671 169.785 212.842C169.785 212.842 159.019 203.368 168.937 193.723C168.937 193.724 199.884 191.121 215.779 182.066Z" fill="white"/>
<path d="M108.569 235.26L162.729 231.046C169.138 230.548 173.98 224.894 173.483 218.476L171.238 189.656C170.801 184.037 166.409 179.631 161.017 178.957C160.253 178.856 159.468 178.842 158.668 178.903L104.517 183.116C98.0991 183.613 93.2572 189.269 93.7628 195.686L95.5354 218.513L95.9993 224.507C96.4966 230.924 102.158 235.757 108.569 235.26Z" fill="white"/>
<path d="M215.779 182.066C215.779 182.066 222.966 181.92 225.135 190.215C226.518 195.503 223.541 201.526 223.541 201.526C223.541 201.526 203.738 212.671 169.785 212.842C169.785 212.842 159.019 203.368 168.937 193.723C168.937 193.724 199.884 191.121 215.779 182.066Z" fill="white"/>
<g opacity="0.35">
<path d="M177.678 225.721C178.174 232.138 173.334 237.792 166.921 238.293L112.764 242.505C106.352 243.001 100.693 238.17 100.192 231.749L99.7318 225.755L97.9593 202.926C97.4525 196.509 102.294 190.855 108.711 190.359L162.862 186.146C163.661 186.084 164.445 186.099 165.211 186.199C170.602 186.875 174.995 191.28 175.43 196.898L175.727 200.707C183.147 199.898 204.761 197.06 218.121 190.304C220.364 196.049 220.983 197.729 223.948 204.884C217.463 210.451 206.608 218.371 177.232 220.029L177.678 225.721Z" fill="black"/>
</g>
<path d="M108.569 235.26L162.729 231.046C169.138 230.548 173.98 224.894 173.483 218.476L171.238 189.656C170.801 184.037 166.409 179.631 161.017 178.957C160.253 178.856 159.468 178.842 158.668 178.903L104.517 183.116C98.0991 183.613 93.2572 189.269 93.7628 195.686L95.5354 218.513L95.9993 224.507C96.4966 230.924 102.158 235.757 108.569 235.26Z" fill="white"/>
<g opacity="0.35">
<path d="M108.569 235.26L162.729 231.045C169.138 230.548 173.98 224.894 173.483 218.476L171.238 189.655C170.801 184.037 166.409 179.63 161.017 178.957C158.1 181.239 156.249 182.697 156.249 182.697C155.412 206.037 157.763 223.108 121.682 223.522C109.244 223.665 100.671 220.673 95.5342 218.512L95.9981 224.507C96.4966 230.924 102.158 235.756 108.569 235.26Z" fill="black"/>
</g>
<path d="M107.652 237.321C100.566 237.321 94.5414 231.847 93.9835 224.664L91.741 195.839C91.1545 188.297 96.8136 181.684 104.356 181.096L158.511 176.883C162.152 176.603 165.694 177.759 168.486 180.148C171.277 182.537 172.971 185.857 173.254 189.499L175.496 218.324C176.083 225.866 170.424 232.479 162.881 233.067L108.727 237.28C108.366 237.307 108.007 237.321 107.652 237.321ZM159.581 180.888C159.33 180.888 159.078 180.898 158.823 180.917L104.669 185.13C99.3511 185.544 95.3611 190.208 95.7739 195.525L98.0163 224.35C98.2162 226.914 99.4106 229.254 101.381 230.94C103.351 232.625 105.847 233.438 108.411 233.245L162.566 229.032C167.884 228.618 171.874 223.954 171.461 218.636L169.219 189.812C168.826 184.747 164.579 180.888 159.581 180.888Z" fill="black"/>
<path d="M106.378 235.216C107.091 235.308 107.819 235.322 108.568 235.26L162.728 231.045C167.424 230.678 171.28 227.549 172.805 223.366C173.362 221.847 173.612 220.189 173.474 218.477L172.483 205.673L172.155 201.448L171.238 189.656C170.74 183.237 165.078 178.405 158.668 178.901L146.966 179.815C152.44 180.412 156.917 184.847 157.362 190.523L158.578 206.09L159.607 219.351C160.104 225.761 155.264 231.425 148.853 231.921L106.378 235.216Z" fill="white"/>
<g opacity="0.35">
<path d="M106.378 235.216C107.091 235.308 107.819 235.322 108.568 235.26L162.728 231.045C169.137 230.548 173.979 224.894 173.474 218.477L172.155 201.447C171.028 204.562 168.867 208.446 164.982 209.138C162.85 209.523 160.616 208.141 158.577 206.09L159.606 219.351C160.103 225.761 155.263 231.425 148.852 231.921L106.378 235.216Z" fill="black"/>
</g>
<path d="M107.676 237.321C107.162 237.321 106.645 237.29 106.134 237.228L106.219 233.202L148.698 229.902C151.259 229.705 153.597 228.51 155.282 226.54C156.969 224.569 157.787 222.072 157.587 219.51L155.344 190.685C154.985 186.057 151.37 182.331 146.748 181.823L146.811 177.795L158.509 176.882C162.151 176.599 165.695 177.76 168.485 180.149C171.277 182.538 172.971 185.859 173.252 189.501L175.494 218.322C175.78 221.964 174.621 225.508 172.231 228.301C169.842 231.093 166.522 232.786 162.884 233.067L108.725 237.278C108.377 237.305 108.026 237.321 107.676 237.321ZM154.854 181.225C157.41 183.516 159.095 186.748 159.377 190.369L161.62 219.193C161.905 222.833 160.747 226.376 158.357 229.169C158.298 229.237 158.24 229.305 158.18 229.372L162.571 229.03C165.133 228.832 167.47 227.638 169.156 225.667C170.843 223.696 171.66 221.199 171.46 218.635V218.634L169.218 189.81C169.019 187.247 167.826 184.907 165.855 183.221C163.885 181.535 161.391 180.712 158.822 180.914L154.854 181.225Z" fill="black"/>
<path d="M137.146 206.833C137.235 207.899 139.451 216.373 139.451 216.373C139.451 216.373 142.176 216.145 145.521 215.866C149.7 215.516 152.727 210.906 152.28 205.568C151.834 200.23 148.085 196.187 143.905 196.535C141.085 196.771 137.836 197.042 137.836 197.042C137.836 197.042 137.001 205.097 137.146 206.833Z" fill="#22A7F0"/>
<g opacity="0.35">
<path d="M137.146 206.833C137.235 207.899 139.451 216.373 139.451 216.373C139.451 216.373 142.176 216.145 145.521 215.866C149.7 215.516 152.727 210.906 152.28 205.568C151.834 200.23 148.085 196.187 143.905 196.535C141.085 196.771 137.836 197.042 137.836 197.042C137.836 197.042 137.001 205.097 137.146 206.833Z" fill="black"/>
</g>
<path d="M138.307 217.99L137.985 216.756C137.457 214.738 135.728 208.068 135.635 206.958C135.483 205.134 136.241 197.724 136.328 196.885L136.457 195.634L143.781 195.022C146.274 194.813 148.701 195.83 150.607 197.886C152.419 199.839 153.55 202.522 153.794 205.44C154.309 211.603 150.656 216.958 145.65 217.377L138.307 217.99ZM138.658 206.704C138.719 207.294 139.643 211.056 140.599 214.755L145.395 214.354C148.733 214.074 151.145 210.19 150.769 205.694C150.581 203.448 149.733 201.408 148.38 199.95C147.123 198.593 145.574 197.918 144.032 198.046L139.22 198.448C138.92 201.523 138.574 205.686 138.658 206.704Z" fill="black"/>
<path d="M139.45 216.363C143.629 216.014 146.655 211.403 146.209 206.065C145.763 200.727 142.014 196.683 137.834 197.033C133.655 197.382 130.629 201.992 131.076 207.33C131.522 212.668 135.271 216.712 139.45 216.363Z" fill="#22A7F0"/>
<g opacity="0.35">
<path d="M146.211 206.076C146.659 211.41 143.632 216.024 139.454 216.374C135.27 216.725 131.52 212.677 131.077 207.336C131.014 206.616 131.02 205.905 131.085 205.216C132.466 208.792 135.453 211.174 138.698 210.898C142.308 210.596 145.062 207.117 145.448 202.726C145.848 203.756 146.107 204.884 146.211 206.076Z" fill="black"/>
</g>
<path d="M146.211 206.076C146.243 206.439 146.255 206.799 146.249 207.155C145.069 203.042 141.841 200.198 138.31 200.495C134.417 200.824 131.518 204.851 131.515 209.72C131.294 208.96 131.148 208.166 131.076 207.336C130.628 202.002 133.655 197.388 137.833 197.038C142.014 196.696 145.762 200.736 146.211 206.076Z" fill="white"/>
<path d="M138.956 217.911C134.204 217.911 130.058 213.373 129.565 207.467C129.321 204.549 129.992 201.715 131.454 199.488C132.992 197.144 135.214 195.739 137.71 195.53C142.722 195.11 147.209 199.785 147.723 205.948C147.967 208.866 147.296 211.699 145.834 213.926C144.296 216.27 142.074 217.675 139.578 217.884C139.37 217.902 139.161 217.911 138.956 217.911ZM132.589 207.213C132.965 211.709 135.992 215.129 139.326 214.86C140.872 214.731 142.283 213.809 143.298 212.261C144.389 210.599 144.887 208.446 144.699 206.201C144.323 201.705 141.291 198.274 137.962 198.554C136.416 198.684 135.005 199.606 133.99 201.153C132.899 202.815 132.401 204.968 132.589 207.213Z" fill="black"/>
<path d="M125.386 235.259C124.618 235.259 123.957 234.677 123.878 233.896L122.094 216.355C121.992 215.353 121.4 214.475 120.509 214.006L115.124 211.179C113.285 210.213 112.087 208.4 111.918 206.328L109.998 182.71C109.93 181.875 110.553 181.143 111.388 181.075C112.223 181.018 112.954 181.629 113.023 182.464L114.944 206.082C115.028 207.111 115.623 208.012 116.536 208.491L121.921 211.319C123.716 212.261 124.91 214.029 125.116 216.048L126.899 233.589C126.984 234.423 126.377 235.168 125.543 235.252C125.489 235.257 125.437 235.259 125.386 235.259Z" fill="black"/>
<path d="M215.78 182.066C215.78 182.066 222.967 181.92 225.136 190.215C226.518 195.503 223.542 201.526 223.542 201.526C223.542 201.526 203.739 212.671 169.786 212.842C169.786 212.842 159.02 203.368 168.938 193.723C168.938 193.724 199.885 191.121 215.78 182.066Z" fill="white"/>
<g opacity="0.35">
<path d="M223.543 201.528C223.543 201.528 203.742 212.672 169.786 212.843C169.786 212.843 162.762 206.665 165.282 199.208C165.295 199.248 165.309 199.287 165.324 199.326C166.738 203.314 170.643 205.893 174.869 205.73C205.648 204.543 223.443 194.528 223.443 194.528C223.443 194.528 224.442 192.506 225.015 189.782C225.058 189.923 225.101 190.068 225.137 190.215C226.517 195.502 223.543 201.528 223.543 201.528Z" fill="black"/>
</g>
<path d="M172.56 214.825C169.887 214.825 167.383 213.542 165.83 211.367C161.878 205.829 161.671 199.986 165.247 194.919C166.611 192.985 168.753 191.73 171.124 191.473C177.595 190.775 199.737 187.971 213.026 181.249C215.211 180.142 217.716 180.024 219.897 180.927C222.405 181.963 225.689 184.328 227.094 189.703C228.027 193.272 227.271 197.025 226.473 199.546C225.782 201.727 224.176 203.54 222.064 204.521C215.835 207.413 198.564 214.207 172.76 214.822C172.693 214.824 172.627 214.825 172.56 214.825ZM216.847 184.373C216.176 184.373 215.492 184.535 214.852 184.859C201.331 191.699 180.071 194.577 171.558 195.497C170.343 195.628 169.248 196.268 168.553 197.252C165.972 200.91 166.165 204.869 169.124 209.017C169.935 210.153 171.253 210.805 172.664 210.778C197.707 210.182 214.362 203.639 220.36 200.853C221.443 200.349 222.267 199.427 222.615 198.326C223.253 196.314 223.868 193.363 223.179 190.728C222.388 187.703 220.763 185.664 218.349 184.666C217.875 184.47 217.364 184.373 216.847 184.373ZM213.938 183.053H213.944H213.938Z" fill="black"/>
<path d="M69.026 158.259C66.7277 152.277 93.2947 142.471 104.806 139C130.946 131.116 136.749 111.145 128.339 99.4811C112.549 77.5822 55.7354 95.0973 38.9793 111.532C33.005 117.392 20.0689 131.786 23.2964 154.471" fill="white"/>
<g opacity="0.35">
<path d="M104.808 139.001C94.0599 142.235 70.197 150.998 68.9383 157.016C47.6236 146.761 85.9252 135.292 96.9959 132.291C118.82 126.369 130.263 115.975 131.544 106.852C133.826 118.267 126.003 132.609 104.808 139.001Z" fill="black"/>
</g>
<g opacity="0.35">
<path d="M71.6907 158.22L68.8879 157.471C68.8855 157.319 68.9034 157.168 68.9367 157.015C69.7266 157.429 70.6426 157.831 71.6907 158.22Z" fill="black"/>
</g>
<path d="M69.0259 160.282C68.2122 160.282 67.4461 159.788 67.1368 158.984C66.8322 158.192 66.6276 156.921 67.3854 155.374C71.479 147.018 102.885 137.465 104.22 137.062C116.847 133.254 125.818 125.963 128.834 117.06C130.801 111.252 130.022 105.276 126.696 100.663C122.87 95.3576 116.124 92.2574 106.645 91.4473C84.0749 89.5189 51.9415 101.648 40.3937 112.975C28.1892 124.945 23.1095 138.81 25.2972 154.184C25.4542 155.29 24.6857 156.315 23.5794 156.472C22.4742 156.628 21.4487 155.86 21.2917 154.754C18.9136 138.036 24.3871 123.007 37.5612 110.087C49.9644 97.9201 82.9935 85.3671 106.99 87.4156C117.698 88.3293 125.431 91.991 129.978 98.296C134.079 103.983 135.058 111.295 132.667 118.357C129.226 128.515 119.283 136.744 105.39 140.934C90.4787 145.431 73.0981 152.91 71.0198 157.152C70.9234 157.35 70.8972 157.486 70.9139 157.53C71.3148 158.574 70.7937 159.744 69.7516 160.145C69.5125 160.239 69.2674 160.282 69.0259 160.282Z" fill="black"/>
<path d="M252.605 136.887C252.288 136.887 251.969 136.802 251.679 136.627C229.739 123.286 221.583 90.4658 221.246 89.0751C221.014 88.1175 221.603 87.1538 222.56 86.9219C223.517 86.6899 224.482 87.2788 224.715 88.2352C224.795 88.5612 232.87 121.012 253.534 133.578C254.376 134.09 254.644 135.188 254.131 136.03C253.796 136.581 253.208 136.887 252.605 136.887Z" fill="black"/>
<path d="M74.7098 153.172C74.705 153.172 74.7015 153.172 74.6967 153.172C63.1525 153.091 52.7824 147.185 46.2453 136.97C39.9748 127.172 38.6269 115.463 42.7264 106.409C43.1332 105.512 44.1884 105.114 45.0878 105.52C45.986 105.926 46.3833 106.984 45.9777 107.881C42.3707 115.844 43.6257 126.254 49.2515 135.045C55.1248 144.223 64.4087 149.529 74.7217 149.602C75.7067 149.609 76.5002 150.413 76.4943 151.398C76.4871 152.382 75.6901 153.172 74.7098 153.172Z" fill="black"/>
<path d="M118.35 279.806C117.549 279.806 116.821 279.262 116.619 278.45C112.859 263.281 74.4773 256.429 60.0053 255.068C59.0239 254.975 58.3029 254.105 58.3957 253.124C58.4885 252.142 59.3594 251.42 60.3396 251.513C62.5666 251.722 114.946 256.869 120.083 277.59C120.32 278.546 119.737 279.513 118.781 279.751C118.637 279.788 118.492 279.806 118.35 279.806Z" fill="black"/>
<path d="M197.415 284.089C196.258 284.089 195.186 284.041 194.213 283.945C193.233 283.847 192.517 282.973 192.614 281.992C192.712 281.011 193.583 280.294 194.567 280.393C208.409 281.774 242.805 272.643 245.676 260.986C245.911 260.03 246.88 259.443 247.835 259.68C248.791 259.915 249.377 260.883 249.141 261.839C246.969 270.66 233.189 276.392 225.17 279.025C215.641 282.153 204.828 284.089 197.415 284.089Z" fill="black"/>
<path d="M55.9411 296.662C56.3468 296.552 56.6252 296.49 56.9523 296.42C57.2712 296.343 57.5781 296.305 57.8933 296.248C58.5143 296.151 59.1353 296.07 59.7515 296.022C60.9864 295.895 62.2153 295.885 63.4394 295.884C65.8877 295.925 68.3074 296.182 70.6915 296.584C73.0719 297.006 75.4215 297.54 77.6949 298.327C78.2695 298.497 78.8286 298.722 79.3865 298.946C79.9457 299.164 80.5024 299.389 81.0508 299.63C82.1453 300.127 83.2172 300.681 84.2593 301.289C83.0399 301.26 81.8574 301.151 80.6844 301.032C79.5007 300.957 78.342 300.813 77.1821 300.708L73.7203 300.395C73.1445 300.353 72.5758 300.273 72.0013 300.24L70.2834 300.132C67.9969 300.016 65.7211 299.958 63.4692 300.03C62.3438 300.058 61.2219 300.122 60.118 300.21C59.5624 300.249 59.0175 300.316 58.4739 300.37L57.6732 300.473C57.4222 300.504 57.1236 300.552 56.9583 300.58L56.8001 300.606C55.6996 300.788 54.6599 300.042 54.4779 298.942C54.309 297.911 54.9585 296.934 55.9411 296.662Z" fill="black"/>
<path d="M229.73 306.227C230.568 303.555 232.283 301.193 234.308 299.198C236.341 297.179 238.813 295.63 241.423 294.399C242.757 293.867 244.095 293.292 245.493 292.948C246.188 292.764 246.879 292.526 247.587 292.415L249.712 292.051C250.421 291.91 251.134 291.879 251.848 291.834C252.562 291.784 253.276 291.745 253.991 291.712C255.415 291.715 256.834 291.818 258.248 291.912C259.361 291.986 260.203 292.947 260.129 294.058C260.06 295.112 259.193 295.924 258.157 295.943L257.943 295.946C256.645 295.968 255.351 295.92 254.061 295.915C253.42 295.957 252.779 295.993 252.137 296.017C251.495 296.04 250.851 296.059 250.222 296.166L248.317 296.395C247.996 296.42 247.687 296.494 247.376 296.563L246.44 296.753C245.168 296.943 243.982 297.396 242.74 297.719C240.329 298.555 238.033 299.703 235.837 301.094C233.652 302.505 231.589 304.176 229.73 306.227Z" fill="black"/>
</svg>
