<svg width="139" height="184" viewBox="0 0 139 184" fill="none" xmlns="http://www.w3.org/2000/svg">
<g opacity="0.3">
<path d="M57.0248 182.998C88.0313 183.325 113.208 179.707 113.259 174.917C113.309 170.126 88.2143 165.978 57.2078 165.651C26.2012 165.324 1.02447 168.942 0.97395 173.732C0.923427 178.523 26.0182 182.671 57.0248 182.998Z" fill="#401295"/>
</g>
<path d="M23.6117 79.7982C23.1127 74.9484 17.7331 62.5099 12.5264 56.5947C12.5264 56.5947 29.576 64.9634 44.6373 65.1223" fill="#F92323"/>
<g opacity="0.7">
<path d="M40.3595 68.1092C28.5237 66.1744 18.7058 60.6276 18.1457 61.0892C17.5857 61.5508 23.3779 72.1943 24.3993 78.7069L23.6112 79.7995C23.1122 74.9472 17.737 62.5144 12.5303 56.5986C12.7945 56.727 29.6929 64.9653 44.6375 65.123L40.3595 68.1092Z" fill="white"/>
</g>
<g opacity="0.35">
<path d="M36.7594 70.6219L27.4606 77.1116C25.42 73.0114 21.7251 65.2737 22.0534 64.2325C22.3818 63.1912 26.1891 68.2834 36.7594 70.6219Z" fill="black"/>
</g>
<path d="M23.5994 80.8388C23.0771 80.8333 22.6315 80.4368 22.5772 79.905C22.113 75.3988 16.9686 63.2164 11.7463 57.2828C11.4184 56.9102 11.3996 56.358 11.7009 55.9637C12.0022 55.5695 12.5404 55.4427 12.9854 55.6612C13.1542 55.7437 30.0046 63.928 44.6495 64.0825C45.2242 64.0885 45.6848 64.559 45.6788 65.1336C45.6727 65.7083 45.2023 66.1689 44.6276 66.1629C33.613 66.0467 21.7446 61.7028 15.8373 59.2179C20.3778 65.916 24.2222 75.5674 24.6468 79.6915C24.7058 80.2631 24.2903 80.7741 23.7187 80.8325C23.6783 80.8377 23.6385 80.8392 23.5994 80.8388Z" fill="black"/>
<path d="M89.7667 80.4955C90.3678 75.6573 96.0086 63.335 101.339 57.531C101.339 57.531 84.1165 65.5382 69.0552 65.3794" fill="#F92323"/>
<g opacity="0.7">
<path d="M73.2722 68.4559C85.1462 66.7712 95.079 61.4327 95.6291 61.906C96.1793 62.3792 90.164 72.8982 89.0054 79.3879L89.7703 80.4969C90.3714 75.6561 96.0077 63.3395 101.338 57.5349C101.071 57.6576 84.0028 65.5377 69.0582 65.3801L73.2722 68.4559Z" fill="white"/>
</g>
<g opacity="0.35">
<path d="M76.8156 71.0431L85.9755 77.7274C88.1021 73.6712 91.9593 66.0132 91.6531 64.9652C91.3468 63.9172 87.4329 68.9281 76.8156 71.0431Z" fill="black"/>
</g>
<path d="M89.7575 81.5362C89.7184 81.5358 89.6787 81.5335 89.639 81.528C89.0688 81.4571 88.6642 80.938 88.7352 80.3678C89.2467 76.2529 93.2945 66.6847 97.9746 60.0839C92.0162 62.4437 80.0588 66.5363 69.0442 66.4201C68.4695 66.414 68.0089 65.9436 68.015 65.3689C68.021 64.7943 68.4915 64.3336 69.0662 64.3397C83.7111 64.4941 100.73 56.6671 100.901 56.5882C101.35 56.379 101.886 56.5165 102.179 56.9177C102.472 57.3182 102.441 57.87 102.106 58.2355C96.7598 64.057 91.359 76.1282 90.7999 80.6243C90.7331 81.1548 90.2792 81.5417 89.7575 81.5362Z" fill="black"/>
<path d="M80.7192 75.2314C68.1738 75.0758 55.7521 71.9361 55.7521 71.9361L55.2481 71.9289C55.2481 71.9289 42.7503 74.677 30.2054 74.4778C30.2054 74.4778 23.361 115.151 4.5293 146.958C4.5293 146.958 21.7222 151.433 40.1932 145.277C40.1932 145.277 46.6457 149.713 54.4965 149.824C62.348 149.935 68.9117 145.683 68.9117 145.683C87.2177 152.358 104.519 148.37 104.519 148.37C86.5143 116.043 80.7192 75.2314 80.7192 75.2314Z" fill="#FF2261"/>
<path d="M104.519 148.369C104.519 148.369 102.663 148.797 99.5248 149.138C93.0805 149.838 81.224 150.171 68.9123 145.683C68.9123 145.683 62.3499 149.935 54.4978 149.825C46.6457 149.714 40.1944 145.277 40.1944 145.277C27.7919 149.409 15.9647 148.751 9.53457 147.87C6.38532 147.44 4.52931 146.957 4.52931 146.957C23.3616 115.151 30.2048 74.4778 30.2048 74.4778C42.749 74.677 55.2487 71.9289 55.2487 71.9289L55.7514 71.9367C55.7514 71.9367 68.1726 75.0764 80.7198 75.2314C80.7205 75.2308 86.5143 116.043 104.519 148.369Z" fill="#F92323"/>
<g opacity="0.7">
<path d="M104.522 148.369C104.522 148.369 103.937 148.505 102.865 148.684C86.6251 121.97 80.2821 90.2765 80.2821 90.2765C67.8742 90.1261 55.585 87.454 55.585 87.454L55.088 87.4462C55.088 87.4462 42.7324 89.7492 30.3281 89.5623C30.3281 89.5623 23.402 121.11 6.48042 147.374C5.22304 147.137 4.53224 146.957 4.53224 146.957C23.3645 115.151 30.2077 74.4778 30.2077 74.4778C42.752 74.677 55.2516 71.9289 55.2516 71.9289L55.7544 71.9367C55.7544 71.9367 68.1755 75.0764 80.7228 75.2314C80.7228 75.2308 86.5166 116.043 104.522 148.369Z" fill="white"/>
</g>
<g opacity="0.35">
<path d="M99.5261 149.136C93.0818 149.837 81.2253 150.17 68.9136 145.682C68.9136 145.682 62.3511 149.934 54.499 149.823C46.647 149.713 40.1957 145.275 40.1957 145.275C27.7931 149.407 15.966 148.75 9.53582 147.869C26.3574 123.132 32.4305 91.6472 32.4305 91.6472C43.7656 91.8229 55.0518 89.7011 55.0518 89.7011L55.5097 89.7059C55.5097 89.7059 66.7367 92.1769 78.0716 92.3185C78.0722 92.3191 83.3397 123.935 99.5261 149.136Z" fill="black"/>
</g>
<path d="M54.5627 150.864C54.5355 150.863 54.509 150.863 54.4819 150.863C47.4972 150.765 41.6676 147.438 40.045 146.42C21.6822 152.37 4.97553 148.148 4.26711 147.963L2.93015 147.615L3.6335 146.426C22.1466 115.158 29.111 74.7089 29.179 74.3039L29.3277 73.4223L30.2216 73.4367C42.4878 73.6191 54.9003 70.9388 55.0242 70.9117L55.1418 70.8858L55.8881 70.8962L56.0064 70.9259C56.1291 70.9568 68.4606 74.0375 80.7316 74.1896L81.6235 74.2009L81.7486 75.0836C81.8061 75.4899 87.7272 116.083 105.428 147.863L106.101 149.072L104.753 149.382C104.041 149.546 87.2319 153.297 69.0285 146.829C67.3855 147.798 61.5117 150.937 54.5627 150.864ZM40.3556 144.126L40.7828 144.419C40.8441 144.461 47.0845 148.678 54.5114 148.782C54.5354 148.783 54.5594 148.783 54.5833 148.783C61.979 148.861 68.2847 144.848 68.3476 144.808L68.7821 144.528L69.2685 144.705C84.165 150.136 98.5193 148.364 102.918 147.616C86.9926 118.32 80.7835 82.3027 79.824 76.255C68.2596 75.9854 56.9126 73.2899 55.6182 72.974L55.3508 72.9706C54.0577 73.244 42.6437 75.5853 31.0733 75.527C29.9567 81.5584 22.8218 117.415 6.14945 146.248C10.5281 147.118 24.8508 149.294 39.8649 144.29L40.3556 144.126Z" fill="black"/>
<g opacity="0.6">
<path d="M136.479 62.0927C135.316 64.669 133.405 66.4216 131.407 67.6125C132.911 65.2928 133.929 62.5472 133.287 59.7349C132.142 54.7338 124.027 52.6641 118.26 51.4588C119.106 51.0362 121.794 49.6943 122.082 49.5718C125.412 48.1641 139.802 54.7225 136.479 62.0927Z" fill="white"/>
</g>
<path d="M136.071 62.4009C136.007 62.5415 135.942 62.6815 135.871 62.817C135.818 62.9269 135.766 63.0329 135.707 63.1339C135.663 63.2236 135.615 63.3083 135.564 63.3929C135.485 63.5334 135.402 63.6695 135.321 63.8017C135.249 63.9107 135.181 64.0204 135.107 64.1244C134.982 64.3129 134.851 64.4933 134.715 64.6678C134.642 64.7655 134.566 64.8618 134.491 64.955C134.388 65.0858 134.279 65.2077 134.17 65.3302C134.066 65.4496 133.959 65.5646 133.849 65.6788C133.738 65.7931 133.629 65.9036 133.516 66.0135C133.242 66.2768 132.96 66.5275 132.671 66.761C132.587 66.8295 132.503 66.898 132.416 66.9621C132.245 67.0947 132.072 67.2196 131.896 67.3433C131.811 67.4043 131.721 67.4639 131.632 67.5235C131.476 67.6266 131.316 67.7284 131.158 67.8264C131.105 67.858 131.053 67.8896 131.001 67.9212C130.678 68.1128 130.35 68.2923 130.026 68.4542C129.949 68.4943 129.868 68.5339 129.792 68.5709C129.753 68.5913 129.711 68.6104 129.673 68.6271C129.673 68.6271 129.67 68.6264 129.673 68.6309C129.648 68.6394 129.627 68.6531 129.602 68.6617C128.939 68.977 128.283 69.2313 127.661 69.4418C127.574 69.4724 127.493 69.5006 127.409 69.5243C126.91 69.6875 126.438 69.8194 126.001 69.9271C125.858 69.9622 125.715 69.9979 125.578 70.0267C125.432 70.0611 125.29 70.0931 125.156 70.1194C125.043 70.1435 124.933 70.1644 124.828 70.1828C124.261 70.2879 123.823 70.3426 123.558 70.3738C123.52 70.3753 123.49 70.3794 123.459 70.3829C123.344 70.3956 123.28 70.398 123.28 70.398L102.519 83.2939L77.0175 99.1314L73.7419 74.8457C73.7419 74.8457 82.3586 70.2932 92.3002 65.0716C96.2208 63.014 100.346 60.8506 104.233 58.8249C106.13 57.8323 107.97 56.8745 109.704 55.9717C109.896 55.874 110.085 55.7719 110.274 55.6736C112.456 54.5396 114.448 53.5114 116.142 52.6435C116.347 52.5378 116.545 52.4345 116.737 52.3369C117.88 51.7534 118.87 51.2503 119.665 50.8518C119.762 50.8048 119.857 50.7541 119.95 50.7103C119.954 50.7078 119.954 50.7078 119.959 50.7047C120.111 50.6306 120.256 50.5589 120.393 50.4885C120.63 50.3724 120.842 50.2724 121.024 50.1835C121.095 50.1489 121.164 50.1143 121.227 50.0847C121.417 49.9939 121.568 49.9274 121.677 49.88C125.004 48.4729 139.394 55.0312 136.071 62.4009Z" fill="white"/>
<path d="M136.07 62.401C136.006 62.5416 135.941 62.6816 135.87 62.8171C135.817 62.927 135.764 63.033 135.706 63.134C135.662 63.2237 135.614 63.3084 135.563 63.393C135.484 63.5335 135.401 63.6696 135.32 63.8018C135.248 63.9108 135.18 64.0205 135.106 64.1245C134.981 64.313 134.85 64.4934 134.714 64.6679C134.641 64.7656 134.565 64.8619 134.49 64.9551C134.386 65.0859 134.278 65.2078 134.169 65.3303C134.065 65.4497 133.958 65.5647 133.848 65.6789C133.737 65.7932 133.628 65.9037 133.515 66.0136C133.241 66.2769 132.959 66.5276 132.67 66.7611C132.586 66.8296 132.502 66.8981 132.415 66.9622C132.244 67.0948 132.071 67.2197 131.895 67.3434C131.809 67.4044 131.72 67.464 131.631 67.5236C131.474 67.6298 131.315 67.7285 131.157 67.8265C131.104 67.8581 131.052 67.8897 131 67.9213C130.676 68.1129 130.348 68.2924 130.025 68.4543C129.948 68.4944 129.867 68.534 129.791 68.571C129.752 68.5914 129.71 68.6105 129.672 68.6272C129.647 68.6395 129.625 68.6525 129.601 68.6618C128.937 68.9771 128.282 69.2314 127.659 69.4419C127.573 69.4725 127.492 69.5007 127.408 69.5244C126.909 69.6876 126.437 69.8195 126 69.9272C125.853 69.9654 125.711 69.9967 125.577 70.0268C125.431 70.0612 125.289 70.0932 125.155 70.1195C125.041 70.1436 124.931 70.1645 124.827 70.1829C124.26 70.288 123.822 70.3427 123.557 70.3739C123.519 70.3754 123.489 70.3795 123.458 70.383C123.343 70.3957 123.279 70.3981 123.279 70.3981L102.518 83.294C100.925 80.7107 100.087 78.1147 99.7621 75.6312C98.549 66.47 104.231 58.8262 104.231 58.8262C106.129 57.8337 107.968 56.8758 109.702 55.973C109.894 55.8754 110.083 55.7733 110.272 55.6749C112.454 54.5409 114.446 53.5128 116.141 52.6449C116.346 52.5392 116.543 52.4359 116.735 52.3382C117.879 51.7547 118.868 51.2516 119.663 50.8531C119.76 50.8062 119.856 50.7555 119.948 50.7116C119.953 50.7092 119.953 50.7092 119.957 50.7061C120.109 50.632 120.254 50.5603 120.391 50.4898C120.629 50.3737 120.84 50.2737 121.022 50.1848C121.094 50.1502 121.162 50.1156 121.225 50.086C121.416 49.9953 121.567 49.9288 121.675 49.8813C125.003 48.473 139.393 55.0313 136.07 62.401Z" fill="white"/>
<path d="M77.0058 100.171C76.8581 100.169 76.7109 100.136 76.5734 100.072C76.2545 99.9212 76.0331 99.6191 75.9857 99.2698L72.7101 74.9841C72.6516 74.5519 72.8693 74.129 73.2556 73.9255C75.0783 72.9625 117.936 50.3305 121.27 48.9222C124.061 47.7416 131.166 50.5817 134.844 54.3477C137.491 57.0582 138.263 60.0699 137.02 62.8289C133.764 70.051 125.274 71.2459 123.617 71.4121L77.5657 100.014C77.3949 100.12 77.2007 100.173 77.0058 100.171ZM74.8688 75.4258L77.8324 97.3991L122.73 69.5132C122.875 69.4233 123.04 69.3701 123.21 69.3587C123.298 69.3526 132.102 68.672 135.123 61.973C136.016 59.9926 135.421 57.9158 133.355 55.8007C129.744 52.1023 123.578 50.2045 122.079 50.8379C119.044 52.1206 80.3564 72.5292 74.8688 75.4258Z" fill="black"/>
<path d="M121.119 58.1553C122.609 58.2991 124.037 58.6971 125.422 59.2625C126.113 59.5493 126.791 59.887 127.444 60.3021C128.099 60.714 128.74 61.1908 129.303 61.8572C129.582 62.1889 129.849 62.5702 130.025 63.0497C130.207 63.5178 130.287 64.0871 130.183 64.6342C130.151 64.7657 130.114 64.8966 130.076 65.0267C130.037 65.1607 129.992 65.241 129.949 65.3497C129.909 65.4521 129.857 65.5538 129.803 65.6548C129.752 65.7558 129.697 65.8561 129.631 65.9551C129.383 66.3493 129.049 66.7256 128.637 67.0102C128.227 67.2967 127.754 67.4842 127.293 67.5708C126.829 67.6605 126.375 67.6646 125.947 67.6228C125.516 67.5811 125.106 67.4941 124.713 67.3757C124.516 67.3163 124.322 67.2518 124.13 67.1791C123.933 67.1025 123.765 67.0345 123.538 66.9217L124.906 66.1078C124.903 66.3217 124.892 66.4692 124.877 66.6438C124.862 66.812 124.844 66.9778 124.821 67.1435C124.777 67.4742 124.712 67.8016 124.633 68.1282C124.469 68.7782 124.246 69.4256 123.916 70.041C123.586 70.6533 123.158 71.2393 122.618 71.7244C122.084 72.2165 121.443 72.5952 120.772 72.8449C120.101 73.1091 119.397 73.197 118.721 73.2296C118.038 73.2697 117.379 73.17 116.742 73.0409C116.429 72.9562 116.115 72.8766 115.814 72.7693C115.516 72.6532 115.215 72.5504 114.932 72.4061C114.359 72.1395 113.819 71.8101 113.316 71.4282C113.247 71.3757 113.234 71.2766 113.286 71.2071C113.319 71.1633 113.372 71.1417 113.423 71.1454L113.426 71.1455C114.67 71.2444 115.835 71.4075 116.96 71.4465C118.075 71.4689 119.156 71.4154 120.058 71.0198C120.957 70.6388 121.672 69.9745 122.177 69.0864C122.429 68.645 122.626 68.1524 122.774 67.6398C122.846 67.3825 122.908 67.1201 122.954 66.855C122.977 66.7228 122.997 66.5899 123.012 66.4582C123.027 66.3334 123.04 66.1796 123.044 66.0926L123.045 66.0541C123.068 65.5427 123.5 65.146 124.012 65.1685C124.155 65.175 124.292 65.2156 124.411 65.2787C124.506 65.3301 124.669 65.4057 124.806 65.462C124.95 65.5216 125.097 65.5748 125.245 65.6199C125.54 65.712 125.839 65.777 126.126 65.8078C126.704 65.8675 127.219 65.772 127.562 65.5005C127.739 65.3674 127.889 65.1917 128.014 64.9703C128.047 64.9183 128.076 64.8593 128.103 64.7978C128.131 64.7381 128.16 64.6791 128.182 64.6118C128.201 64.5521 128.241 64.4705 128.244 64.4289C128.252 64.3842 128.262 64.3414 128.275 64.2986C128.29 64.131 128.265 63.9648 128.185 63.7633C128.108 63.5657 127.963 63.3421 127.781 63.1225C127.603 62.903 127.378 62.6848 127.147 62.4711C126.903 62.2635 126.654 62.0526 126.384 61.853C125.847 61.4549 125.271 61.0741 124.68 60.7025C123.498 59.9551 122.258 59.2386 121.023 58.4439L121.019 58.4413C120.947 58.3945 120.926 58.2984 120.972 58.2263C121.005 58.175 121.062 58.1497 121.119 58.1553Z" fill="black"/>
<path d="M125.815 55.7773C126.013 56.5996 126.176 57.3703 126.372 58.0985C126.464 58.4635 126.581 58.8124 126.663 59.1564C126.736 59.5061 126.835 59.8314 126.849 60.1943L126.853 60.2947C126.872 60.8046 126.474 61.2338 125.964 61.2531C125.611 61.2664 125.296 61.0788 125.13 60.7932C124.9 60.3952 124.774 59.9504 124.717 59.51C124.657 59.0672 124.679 58.6201 124.734 58.186C124.786 57.7512 124.881 57.3251 125.012 56.9133C125.152 56.5009 125.317 56.1027 125.561 55.7261C125.603 55.6615 125.689 55.6429 125.754 55.6852C125.785 55.7051 125.806 55.7362 125.813 55.7691L125.815 55.7773Z" fill="black"/>
<path d="M102.509 84.0727C102.25 84.07 101.998 83.9386 101.853 83.7017C98.6805 78.555 97.9793 72.5353 99.8261 66.2939C101.211 61.6115 103.508 58.4877 103.604 58.3575C103.862 58.0119 104.349 57.9401 104.696 58.1961C105.041 58.4527 105.114 58.9412 104.857 59.2873C104.769 59.4069 96.0876 71.3753 103.181 82.8836C103.407 83.2506 103.293 83.7308 102.926 83.9572C102.796 84.0366 102.652 84.0742 102.509 84.0727Z" fill="black"/>
<g opacity="0.35">
<path d="M129.673 68.6264C129.673 68.6264 129.669 68.6257 129.672 68.6302C129.647 68.6388 129.626 68.6524 129.601 68.661C128.938 68.9764 128.282 69.2306 127.66 69.4411C127.574 69.4717 127.493 69.4999 127.409 69.5236C126.91 69.6868 126.438 69.8187 126.001 69.9264C125.853 69.9646 125.712 69.9959 125.577 70.026C125.431 70.0605 125.289 70.0924 125.156 70.1187C125.042 70.1428 124.932 70.1637 124.827 70.1821C124.261 70.2872 123.822 70.3419 123.558 70.3732C123.52 70.3747 123.489 70.3788 123.458 70.3822C123.343 70.3949 123.28 70.3974 123.28 70.3974L102.518 83.2932L77.0168 99.1307L75.5961 88.5989L81.9815 83.0766C87.554 79.9778 93.1046 81.0439 98.1598 79.2493C99.2782 78.8523 100.304 78.4688 101.072 78.1457C106.956 75.6716 111.138 72.9897 111.138 72.9897C108.337 71.4107 111.224 68.1454 111.224 68.1454C119.794 69.6389 121.029 63.3967 122.231 63.0586C123.433 62.7205 129.146 64.7781 129.146 64.7781C130.457 65.6954 130.341 67.1534 129.673 68.6264Z" fill="black"/>
</g>
<path d="M92.0446 168.806C92.0259 168.968 92.0021 169.126 91.9696 169.282C91.0786 174.025 85.2257 175.659 74.7364 174.241C69.9857 173.599 63.4175 172.828 61.7209 169.198C58.3357 161.952 62.0233 147.4 61.7113 138.049L61.7114 138.032C61.7114 138.032 59.7983 138.238 57.4271 138.213C55.0552 138.188 53.1475 137.941 53.1475 137.941C53.1442 138.017 53.1402 138.095 53.1369 138.17C52.6863 147.521 55.9897 161.98 52.4782 169.101C50.7054 172.694 44.1256 173.326 39.3617 173.868C28.831 175.064 23.0133 173.304 22.2315 168.53C22.2053 168.379 22.1843 168.225 22.1695 168.069C21.6245 162.257 30.1449 159.652 30.1449 159.652C30.1449 159.652 28.4228 147.31 27.3194 136.183C24.5796 108.539 35.6931 75.409 35.6931 75.409L80.479 75.8814C80.479 75.8814 90.8938 109.239 87.569 136.819C86.2311 147.921 84.2516 160.222 84.2516 160.222C84.2516 160.222 92.7121 163.007 92.0446 168.806Z" fill="white"/>
<path d="M28.9439 150.495C29.6089 155.816 30.1438 159.651 30.1438 159.651C30.1438 159.651 21.6234 162.257 22.1683 168.068C22.1837 168.225 22.2042 168.379 22.2303 168.53C23.0128 173.304 28.8299 175.065 39.3606 173.868C44.1238 173.326 50.7042 172.694 52.4771 169.1C54.7257 164.541 54.1797 156.973 53.6145 149.663C41.6336 153.773 33.0731 151.984 28.9439 150.495Z" fill="#33AEF1"/>
<path d="M84.2501 160.223C84.2501 160.223 84.9314 155.987 85.7648 150.245C81.9286 151.658 73.2628 153.635 61.0372 149.296C60.3034 156.729 59.5243 164.5 61.7194 169.199C63.416 172.829 69.9842 173.599 74.7349 174.242C85.2242 175.659 91.0771 174.026 91.9681 169.283C92.0006 169.127 92.0244 168.968 92.0431 168.806C92.7106 163.008 84.2501 160.223 84.2501 160.223Z" fill="#33AEF1"/>
<g opacity="0.35">
<path d="M42.5322 133.529C42.5322 133.529 50.4248 134.884 56.5311 134.949C62.6373 135.013 72.4239 133.845 72.4239 133.845C72.4239 133.845 66.5087 138.278 57.1558 137.986C47.5682 137.687 42.5322 133.529 42.5322 133.529Z" fill="black"/>
</g>
<g opacity="0.35">
<path d="M52.4765 169.101C50.7036 172.695 44.1238 173.326 39.36 173.868C28.8293 175.064 23.0115 173.305 22.2297 168.531C30.8047 171.884 46.0004 170.181 48.6392 166.069C52.0561 160.744 52.6576 155.392 47.5012 148.658C42.3478 141.927 42.0348 133.204 42.0348 133.204C44.5137 134.985 49.6303 136.944 53.1345 138.171C52.6845 147.523 55.988 161.981 52.4765 169.101Z" fill="black"/>
</g>
<g opacity="0.35">
<path d="M91.9705 169.284C91.0795 174.026 85.2266 175.66 74.7374 174.242C69.9867 173.6 63.4185 172.83 61.7218 169.199C58.3366 161.953 62.0243 147.401 61.7122 138.05C64.6319 137.212 70.0391 135.493 72.8981 133.53C72.8981 133.53 74.2621 139.814 68.085 148.317C63.1012 155.179 62.6855 160.675 65.99 166.068C68.3325 169.895 82.4809 171.606 91.9705 169.284Z" fill="black"/>
</g>
<path d="M36.0219 75.5204C35.2101 78.9766 34.3951 82.4316 33.6268 85.8895C33.431 86.7537 33.2332 87.6165 33.0525 88.4833L32.4839 91.0772C32.1306 92.8116 31.7527 94.5406 31.4215 96.2784L30.929 98.885L30.6818 100.188L30.4643 101.496C30.1702 103.24 29.8446 104.978 29.6148 106.73C29.3654 108.479 29.0947 110.226 28.9115 111.982L28.6049 114.614C28.4972 115.491 28.4532 116.372 28.3739 117.251L28.1682 119.89C28.1263 120.33 28.1166 120.77 28.1 121.211L28.0514 122.532L27.9535 125.174C27.928 125.615 27.941 126.055 27.9446 126.495L27.9616 127.816L27.9962 130.456C27.9909 130.897 28.0336 131.334 28.0612 131.773L28.1514 133.088L28.3306 135.718C28.3958 136.596 28.5025 137.481 28.5885 138.363C29.3348 145.42 30.2136 152.477 31.1741 159.509L31.2924 160.376L30.448 160.647C30.1239 160.75 29.7413 160.895 29.3909 161.04C29.0341 161.187 28.6804 161.346 28.3342 161.516C27.6423 161.857 26.9721 162.238 26.3524 162.67C25.1132 163.525 24.0407 164.601 23.5285 165.846C23.2621 166.464 23.1649 167.123 23.1982 167.789C23.2282 168.474 23.4047 169.145 23.697 169.727C24.2904 170.895 25.4688 171.735 26.8596 172.242C28.2503 172.757 29.801 173.003 31.3656 173.116C32.9354 173.225 34.5324 173.204 36.1308 173.108C37.7285 173.019 39.3285 172.827 40.9525 172.64C42.562 172.449 44.1541 172.233 45.6907 171.891C47.2186 171.549 48.7225 171.082 49.9286 170.32C50.5275 169.941 51.0313 169.483 51.3656 168.954C51.413 168.89 51.4453 168.82 51.4832 168.752C51.5205 168.687 51.5591 168.616 51.5966 168.526L51.824 168.021C51.9533 167.669 52.0932 167.322 52.1949 166.954C52.3147 166.596 52.3938 166.217 52.4898 165.846C52.5626 165.465 52.6505 165.09 52.7038 164.701C52.8349 163.933 52.9082 163.145 52.972 162.357C53.0814 160.774 53.0914 159.168 53.0504 157.557C52.9595 154.331 52.6777 151.086 52.4307 147.818C52.1933 144.549 51.9435 141.257 52.1084 137.885L52.1624 136.777L53.2789 136.911C53.9442 136.99 54.6559 137.05 55.3481 137.093C56.0448 137.137 56.7423 137.163 57.4374 137.172C58.1326 137.178 58.8305 137.167 59.5279 137.137C60.2209 137.109 60.9336 137.064 61.6006 136.998L62.7196 136.888L62.7502 137.997C62.844 141.372 62.5248 144.658 62.2184 147.922C61.9027 151.183 61.5524 154.422 61.3935 157.645C61.3185 159.255 61.294 160.86 61.3707 162.445C61.4178 163.235 61.4745 164.024 61.5894 164.795C61.6345 165.184 61.7151 165.562 61.7792 165.944C61.8673 166.317 61.9384 166.697 62.0507 167.058C62.1452 167.428 62.2771 167.777 62.3989 168.132L62.6156 168.642C62.6513 168.733 62.6877 168.805 62.7243 168.87C62.7614 168.939 62.7916 169.01 62.8376 169.075C63.1606 169.611 63.6547 170.08 64.2455 170.471C65.4352 171.259 66.9296 171.757 68.4492 172.131C69.9783 172.506 71.5655 172.755 73.1706 172.98C74.7903 173.201 76.3859 173.427 77.9814 173.55C79.5774 173.68 81.1736 173.734 82.7453 173.658C84.312 173.577 85.8675 173.365 87.2688 172.879C88.6706 172.401 89.8659 171.586 90.4837 170.431C90.7875 169.856 90.9788 169.189 91.0232 168.505C91.0706 167.839 90.9874 167.179 90.734 166.555C90.2482 165.299 89.1987 164.2 87.9778 163.32C87.3667 162.875 86.7053 162.48 86.0207 162.124C85.6781 161.947 85.3279 161.781 84.9743 161.626C84.627 161.473 84.2476 161.321 83.9258 161.211L83.0872 160.922L83.2244 160.057C84.2457 153.607 85.1947 147.132 86.0402 140.655C86.2421 139.039 86.4675 137.409 86.6289 135.803C86.7049 134.998 86.8093 134.196 86.8626 133.389L87.032 130.967C87.1979 127.733 87.2139 124.487 87.1118 121.242C86.9261 114.75 86.1805 108.271 85.1423 101.848C84.6216 98.6432 84.0772 95.4104 83.5183 92.2337C82.8946 89.0406 82.3051 85.8288 81.6594 82.6361L81.6581 82.631C81.6198 82.442 81.7422 82.2578 81.9312 82.22C82.0925 82.1877 82.2499 82.2713 82.3166 82.414C83.0224 83.9236 83.5712 85.4851 84.0858 87.052C84.5898 88.6225 85.0494 90.2014 85.4559 91.7999C86.2262 95.0325 86.8459 98.2433 87.3345 101.506C87.8371 104.759 88.2082 108.033 88.5345 111.31C88.6951 112.948 88.8223 114.591 88.9469 116.235L89.0912 118.703C89.1399 119.526 89.1571 120.351 89.1913 121.175C89.2947 124.472 89.2794 127.777 89.1095 131.08L88.9364 133.556C88.8817 134.382 88.7752 135.204 88.6971 136.029C88.5308 137.679 88.3075 139.291 88.1036 140.923C87.2546 147.428 86.3049 153.908 85.2789 160.387L84.5775 159.234C85.0288 159.389 85.407 159.545 85.8089 159.719C86.2039 159.893 86.5931 160.077 86.9765 160.276C87.7419 160.674 88.4893 161.118 89.1999 161.635C89.9118 162.149 90.5901 162.736 91.1942 163.423C91.8008 164.103 92.3223 164.903 92.6744 165.802C93.0365 166.696 93.1717 167.699 93.0984 168.66C93.0336 169.607 92.7763 170.548 92.3154 171.418C91.8465 172.279 91.1736 173.03 90.4057 173.582C89.6408 174.147 88.8038 174.548 87.9591 174.84C86.2647 175.425 84.5432 175.645 82.8502 175.735C81.1548 175.817 79.476 175.757 77.8138 175.622C76.1477 175.494 74.5042 175.26 72.8839 175.04C71.2517 174.811 69.6028 174.555 67.9547 174.152C66.3131 173.74 64.6417 173.217 63.0898 172.201C62.3229 171.691 61.5855 171.022 61.0603 170.155C60.9901 170.051 60.9352 169.936 60.8758 169.824C60.8146 169.71 60.7596 169.599 60.7209 169.5L60.4587 168.881C60.3123 168.463 60.1577 168.045 60.0492 167.623C59.9206 167.202 59.8392 166.778 59.7409 166.355C59.6677 165.932 59.5801 165.508 59.5303 165.085C59.4048 164.238 59.3443 163.394 59.2939 162.553C59.2132 160.871 59.2397 159.203 59.3164 157.547C59.48 154.236 59.835 150.97 60.1487 147.723C60.4548 144.48 60.7622 141.238 60.672 138.069L61.8216 139.068C61.065 139.142 60.3504 139.186 59.6145 139.217C58.883 139.247 58.151 139.259 57.4161 139.253C56.6812 139.244 55.9497 139.216 55.219 139.171C54.4839 139.124 53.7697 139.065 53.0155 138.975L54.1859 138.001C54.0295 141.167 54.2678 144.415 54.5055 147.663C54.7506 150.917 55.0366 154.189 55.1304 157.503C55.1722 159.16 55.164 160.828 55.0473 162.508C54.9791 163.348 54.9008 164.19 54.7576 165.035C54.6988 165.457 54.6023 165.878 54.5203 166.3C54.413 166.721 54.3227 167.143 54.1852 167.561C54.0678 167.981 53.9045 168.395 53.7493 168.81L53.4741 169.423C53.4333 169.522 53.3754 169.632 53.3124 169.745C53.2506 169.855 53.1933 169.969 53.1209 170.071C52.5775 170.927 51.8262 171.58 51.0488 172.074C49.4757 173.057 47.7937 173.545 46.1438 173.922C44.487 174.29 42.833 174.511 41.1969 174.706C39.5723 174.892 37.9243 175.091 36.2559 175.184C34.5912 175.284 32.9115 175.308 31.2182 175.19C29.5275 175.065 27.811 174.809 26.1293 174.188C25.2916 173.878 24.4627 173.459 23.7098 172.879C22.9537 172.31 22.2968 171.546 21.8461 170.675C21.4037 169.795 21.1663 168.849 21.1215 167.901C21.0692 166.938 21.2254 165.938 21.6057 165.052C21.9766 164.161 22.5149 163.372 23.1358 162.705C23.7542 162.031 24.4441 161.458 25.1673 160.96C25.8893 160.457 26.6452 160.029 27.4189 159.647C27.8064 159.457 28.1994 159.281 28.598 159.116C29.0035 158.95 29.3855 158.803 29.84 158.657L29.1144 159.795C28.1499 152.732 27.2698 145.669 26.5201 138.578C26.4335 137.69 26.3267 136.809 26.2605 135.913L26.0763 133.221L25.9845 131.874C25.9564 131.425 25.9132 130.977 25.9179 130.528L25.8826 127.834L25.8647 126.487C25.8587 126.038 25.8432 125.589 25.8662 125.141L25.9507 122.452L25.9933 121.107C26.0081 120.659 26.0154 120.21 26.0554 119.764L26.249 117.083C26.3196 116.19 26.3556 115.293 26.4545 114.404L26.7363 111.732L26.8772 110.397C26.9204 109.951 26.9724 109.506 27.0376 109.064L27.4126 106.407C27.9093 102.862 28.5552 99.342 29.2899 95.8427C29.4625 94.9657 29.6824 94.0986 29.8765 93.2263C30.0806 92.3559 30.2664 91.4822 30.4894 90.6165C30.9373 88.8863 31.3676 87.1521 31.8828 85.4402C32.8836 82.0093 33.9881 78.6111 35.3656 75.2989C35.4394 75.1218 35.6428 75.0382 35.8199 75.1113C35.9794 75.178 36.0634 75.3492 36.0251 75.5116L36.0219 75.5204Z" fill="black"/>
<g opacity="0.35">
<path d="M88.2779 116.388C87.5788 117.233 86.567 117.819 85.3865 117.949C81.7478 118.35 76.6022 118.603 72.7974 117.518C70.0516 121.964 65.183 126.4 56.5931 129.005C48.0463 126.216 43.2719 121.665 40.6237 117.156C36.7909 118.188 31.5988 117.824 27.9441 117.344C27.6146 117.299 27.2943 117.222 26.9965 117.107C27.0677 114.303 27.2455 111.5 27.4923 108.734C27.8339 108.651 28.192 108.61 28.5579 108.614C28.6248 108.615 28.6973 108.616 28.7648 108.619C31.2887 108.763 34.6482 108.877 37.6838 108.713C37.2072 105.453 37.5522 103.186 37.5522 103.186C42.5346 98.3105 56.9184 98.1044 56.9184 98.1044C56.9184 98.1044 71.2978 98.6138 76.1756 103.593C76.1756 103.593 76.4727 105.871 75.9243 109.122C78.9306 109.341 82.247 109.3 84.7488 109.209C84.8157 109.208 84.8882 109.208 84.9557 109.209C86.1568 109.222 87.2549 109.725 88.0481 110.541C88.1684 112.478 88.2481 114.432 88.2779 116.388Z" fill="black"/>
</g>
<path d="M43.0313 113.35C39.1479 114.875 33.1662 114.484 29.0913 113.947C26.6475 113.626 24.9536 111.349 25.3395 108.914C25.6916 106.693 27.6674 105.095 29.9132 105.224C33.7278 105.443 39.4509 105.587 43.0846 104.821" fill="#F92323"/>
<g opacity="0.7">
<path d="M29.8935 107.174C33.708 107.394 39.4311 107.538 43.0649 106.772L43.021 113.678C43.0236 113.677 43.0255 113.676 43.028 113.675L43.082 105.147C39.4482 105.913 33.7251 105.769 29.9106 105.549C27.6648 105.42 25.689 107.018 25.3369 109.24C25.2578 109.739 25.2703 110.229 25.3543 110.699C25.7768 108.565 27.705 107.049 29.8935 107.174Z" fill="white"/>
</g>
<g opacity="0.35">
<path d="M43.0317 113.348C39.147 114.875 33.1653 114.481 29.091 113.947C26.6472 113.625 24.9534 111.347 25.3399 108.914C25.4164 108.417 25.5784 107.952 25.8043 107.529C26.4354 108.766 27.6458 109.686 29.1333 109.882C33.2006 110.419 39.1722 110.809 43.0568 109.292L43.0317 113.348Z" fill="black"/>
</g>
<path d="M35.3187 115.46C33.0806 115.436 30.8577 115.228 28.9544 114.978C27.4934 114.785 26.2037 114.029 25.3222 112.848C24.4395 111.664 24.08 110.209 24.3118 108.751C24.7498 105.988 27.1937 104.021 29.9723 104.185C35.5907 104.507 40.1705 104.371 42.8703 103.803C43.4141 103.688 44.7679 103.697 45.5376 106.265C46.317 108.87 46.1808 113.23 43.4111 114.317C41.1312 115.212 38.2129 115.491 35.3187 115.46ZM29.6937 106.256C28.0435 106.239 26.6285 107.426 26.3663 109.076C26.2237 109.976 26.4452 110.873 26.9895 111.603C27.5326 112.331 28.327 112.797 29.2266 112.915C35.0504 113.682 39.8181 113.493 42.6505 112.381C43.4798 112.055 43.7349 110.72 43.8064 110.161C44.0594 108.183 43.4789 106.336 43.1046 105.878C39.4175 106.611 33.8815 106.493 29.8533 106.262C29.7997 106.258 29.7467 106.257 29.6937 106.256Z" fill="black"/>
<path d="M72.6112 113.66C76.4616 115.267 82.4502 115.002 86.5355 114.552C88.9855 114.282 90.7271 112.041 90.3926 109.599C90.0874 107.371 88.1458 105.731 85.8977 105.813C82.0794 105.951 76.3546 105.975 72.7378 105.132" fill="#F92323"/>
<g opacity="0.7">
<path d="M72.7166 107.083C76.3334 107.925 82.0582 107.902 85.8765 107.763C88.0097 107.686 89.8642 109.158 90.3093 111.213C90.4321 110.698 90.4681 110.154 90.392 109.598C90.0862 107.37 88.1445 105.731 85.8971 105.812C82.0788 105.951 76.3539 105.974 72.7371 105.132L72.6112 113.66C72.6137 113.661 72.6169 113.662 72.6194 113.663L72.7166 107.083Z" fill="white"/>
</g>
<g opacity="0.35">
<path d="M86.5332 114.555C82.4486 115.003 76.4599 115.27 72.6083 113.662L72.6685 109.569C76.5202 111.167 82.4981 110.902 86.5765 110.451C88.0608 110.29 89.2839 109.403 89.944 108.186C90.1679 108.618 90.3231 109.094 90.3928 109.602C90.7248 112.042 88.9833 114.284 86.5332 114.555Z" fill="black"/>
</g>
<path d="M80.2745 115.934C77.3803 115.903 74.4692 115.564 72.2086 114.621C69.4624 113.475 69.4176 109.113 70.2524 106.526C71.0761 103.973 72.4298 103.994 72.971 104.119C75.6583 104.745 80.2329 104.977 85.8575 104.773C88.6515 104.667 91.0415 106.686 91.4204 109.457C91.6214 110.921 91.2314 112.368 90.3239 113.533C89.4177 114.695 88.1116 115.424 86.6475 115.585C84.7407 115.796 82.5126 115.957 80.2745 115.934ZM72.6931 106.189C72.3092 106.639 71.6898 108.473 71.9005 110.457C71.9602 111.017 72.1877 112.357 73.0092 112.7C75.8169 113.872 80.5796 114.162 86.4189 113.517C87.3208 113.418 88.1249 112.969 88.6832 112.253C89.2428 111.535 89.4831 110.643 89.3595 109.74C89.1252 108.031 87.6569 106.792 85.9327 106.852C81.9011 106.999 76.3638 107 72.6931 106.189Z" fill="black"/>
<path d="M75.5782 153.201C71.8867 153.162 67.1086 152.417 60.9982 150.352C60.4538 150.168 60.1617 149.578 60.3459 149.033C60.5302 148.489 61.1194 148.197 61.6644 148.381C79.7159 154.48 85.0838 148.463 85.1356 148.401C85.5035 147.967 86.1572 147.905 86.5956 148.267C87.0346 148.63 87.1042 149.273 86.7475 149.717C86.58 149.923 83.7333 153.287 75.5782 153.201Z" fill="black"/>
<path d="M38.1365 153.25C34.2463 153.209 30.5117 152.471 28.13 150.326C27.7032 149.942 27.6685 149.284 28.0534 148.857C28.4377 148.43 29.096 148.396 29.5223 148.78C35.4961 154.16 52.9542 148.873 53.1295 148.819C53.6801 148.65 54.2605 148.958 54.4294 149.507C54.5984 150.056 54.2901 150.638 53.7413 150.807C53.2438 150.959 45.4186 153.326 38.1365 153.25Z" fill="black"/>
<path d="M56.6322 125.411C77.3206 119.137 75.0237 101.546 75.0237 101.546C70.4423 96.8667 56.9383 96.3905 56.9383 96.3905C56.9383 96.3905 43.4265 96.5824 38.7481 101.163C38.7481 101.163 36.0806 118.702 56.6322 125.411Z" fill="#33AEF1"/>
<g opacity="0.7">
<path d="M75.0529 104.49C75.0294 104.082 75.0009 103.858 75.0009 103.858C70.4183 99.1805 56.9129 98.7031 56.9129 98.7031C56.9129 98.7031 43.4037 98.8956 38.7235 103.476C38.7235 103.476 38.6902 103.699 38.6581 104.106C38.5737 102.301 38.7479 101.163 38.7479 101.163C43.4281 96.583 56.9373 96.3905 56.9373 96.3905C56.9373 96.3905 70.4427 96.8679 75.0253 101.546C75.0253 101.546 75.1747 102.687 75.0529 104.49Z" fill="white"/>
</g>
<g opacity="0.35">
<path d="M75.0246 101.547C74.8242 101.342 74.6061 101.146 74.3734 100.958C74.1038 105.831 71.8026 116.272 57.5808 120.981C56.9958 121.175 56.3599 121.168 55.7785 120.962C41.6592 115.954 39.5788 105.466 39.4119 100.589C39.1753 100.773 38.9531 100.965 38.7485 101.164C38.7485 101.164 36.081 118.703 56.6325 125.412C77.321 119.138 75.0246 101.547 75.0246 101.547Z" fill="black"/>
</g>
<path d="M59.7524 105.789L63.378 106.34C63.8668 106.414 64.0585 107.017 63.7022 107.359L61.0598 109.902C60.9183 110.038 60.8531 110.236 60.8845 110.429L61.481 114.047C61.5617 114.535 61.0474 114.904 60.6114 114.671L57.3761 112.944C57.203 112.851 56.9954 112.85 56.821 112.94L53.5643 114.626C53.1253 114.853 52.6157 114.478 52.7022 113.991L53.3453 110.38C53.3796 110.187 53.3167 109.989 53.1768 109.851L50.5669 107.275C50.2147 106.927 50.4141 106.327 50.9044 106.259L54.5367 105.754C54.7313 105.727 54.8997 105.606 54.988 105.431L56.6319 102.153C56.8536 101.711 57.4864 101.715 57.7025 102.16L59.3042 105.459C59.3913 105.636 59.5584 105.76 59.7524 105.789Z" fill="white"/>
<path d="M56.6206 126.501L56.3094 126.399C45.2948 122.804 40.8206 116.109 39.0057 111.127C37.0358 105.716 37.691 101.196 37.7195 101.007L37.7717 100.663L38.0203 100.42C42.9396 95.6032 56.3547 95.358 56.9233 95.3501L56.9491 95.3498L56.975 95.3507C57.5432 95.3705 70.9508 95.8987 75.7668 100.818L76.0103 101.066L76.0552 101.411C76.0797 101.601 76.6394 106.134 74.5558 111.502C72.6369 116.445 68.0218 123.044 56.9339 126.406L56.6206 126.501ZM39.7389 101.663C39.6396 102.766 39.4727 106.388 40.9932 110.504C43.3891 116.991 48.6534 121.637 56.6436 124.319C64.6886 121.806 70.0497 117.272 72.5818 110.838C74.1882 106.756 74.0984 103.131 74.0223 102.024C69.639 98.0166 57.5723 97.4572 56.9272 97.4308C56.2817 97.4436 44.2059 97.7483 39.7389 101.663Z" fill="black"/>
<path d="M19.0364 128.613C8.24498 126.294 11.4766 116.161 11.5517 115.92L11.5549 115.917C11.115 115.631 10.6948 115.342 10.2877 115.057C10.2877 115.057 24.9294 113.429 27.8375 106.691C27.946 106.45 28.0345 106.2 28.1065 105.947C28.1065 105.947 28.1065 105.947 28.1097 105.947C36.6038 118.875 28.8081 130.713 19.0364 128.613Z" fill="white"/>
<path d="M24.4058 101.357C24.4307 101.382 24.4557 101.408 24.4775 101.433C38.3849 115.945 29.9406 130.958 19.0365 128.614C8.11547 126.267 11.555 115.919 11.555 115.919C-16.03 97.9467 24.6668 76.6104 24.6668 76.6104C32.3567 72.4703 40.2536 69.8856 40.2536 69.8856L35.1531 84.9401L31.1016 96.9019C25.7728 99.1471 24.4058 101.357 24.4058 101.357Z" fill="white"/>
<g opacity="0.35">
<path d="M32.3746 87.1461L31.1008 96.9C25.772 99.1459 24.4049 101.355 24.4049 101.355C24.4299 101.381 24.4549 101.406 24.4767 101.432C23.0672 100.243 21.1738 98.8829 19.1789 98.1098C19.1789 98.1098 22.893 96.1207 24.1403 94.6841C29.519 88.4856 28.2023 83.2815 33.1904 83.9706C33.974 84.0792 32.9044 86.0786 32.3746 87.1461Z" fill="black"/>
</g>
<path d="M21.129 129.89C20.3676 129.882 19.5951 129.796 18.8189 129.629C15.2512 128.862 12.7167 127.205 11.2871 124.702C9.47333 121.527 9.99644 117.927 10.3567 116.37C3.84528 111.951 0.678351 106.916 0.939694 101.398C1.58838 87.687 23.2608 76.1704 24.1832 75.6868C31.8579 71.5566 39.85 68.923 39.9297 68.8967C40.4761 68.7177 41.0634 69.0159 41.2419 69.5617C41.4204 70.1074 41.1227 70.6947 40.577 70.8738C40.4985 70.8995 32.6755 73.4793 25.1587 77.5241C24.9342 77.6422 3.6075 88.9744 3.01739 101.499C2.78651 106.401 5.84996 110.959 12.1226 115.047L12.7949 115.485L12.5415 116.246C12.5285 116.285 11.2151 120.399 13.1002 123.683C14.2259 125.643 16.2971 126.959 19.2561 127.596C23.3281 128.471 27.1479 126.697 29.2231 122.968C31.8005 118.335 31.6916 110.415 23.6563 102.077L23.0947 101.494L23.5214 100.807C23.6601 100.583 25.0133 98.5556 29.6584 96.4034C30.1796 96.1616 30.798 96.3883 31.0398 96.9101C31.2816 97.4312 31.0542 98.0496 30.5331 98.2914C27.9015 99.5103 26.4831 100.661 25.8054 101.326C33.9773 110.236 33.9069 118.829 31.0413 123.979C28.9359 127.763 25.1996 129.933 21.129 129.89Z" fill="black"/>
<path d="M23.8295 102.079C23.4789 101.706 23.0861 101.323 22.6982 100.957C22.3071 100.589 21.9059 100.229 21.4957 99.879C20.6716 99.1839 19.8123 98.5251 18.8623 97.9775C19.9283 98.2386 20.9713 98.6426 21.9873 99.095C22.4946 99.3237 22.9974 99.5655 23.495 99.82C23.9951 100.077 24.4788 100.334 24.9823 100.631L23.8295 102.079Z" fill="black"/>
<path d="M11.9998 115.105C12.4285 115.369 12.8741 115.655 13.3108 115.936L14.633 116.784L15.9692 117.628C16.4179 117.91 16.8731 118.181 17.3395 118.461C16.7966 118.435 16.2594 118.348 15.7254 118.247C15.1935 118.14 14.6687 118.005 14.1498 117.854C13.6322 117.701 13.1173 117.536 12.6139 117.347C12.1062 117.16 11.6117 116.966 11.1127 116.73L11.9998 115.105Z" fill="black"/>
<g opacity="0.3">
<path d="M19.0365 128.613C8.2451 126.294 11.4767 116.16 11.5518 115.92L11.555 115.916C11.555 115.916 13.3268 126 23.1323 123.343C29.4029 121.64 28.9666 112.823 27.8376 106.691C27.9461 106.451 28.0346 106.201 28.1067 105.947C28.1067 105.947 28.1067 105.947 28.1098 105.947C36.6039 118.875 28.8082 130.713 19.0365 128.613Z" fill="#421861"/>
</g>
<path d="M56.8967 85.4001L56.8622 88.6709C56.8622 88.6709 42.3511 90.5991 34.7479 76.1651C33.6773 74.1368 32.7463 71.7858 32.0098 69.0596L39.9297 70.3891C39.9297 70.3891 43.0502 75.6993 47.53 80.0208C50.2766 82.673 53.5351 84.9508 56.8967 85.4001Z" fill="#F92323"/>
<g opacity="0.35">
<path d="M56.8959 85.4001L56.8614 88.6708C56.8614 88.6708 42.3503 90.5991 34.7471 76.165C36.6771 78.3058 42.1974 84.1555 44.7796 84.0402C47.1414 83.9364 42.0557 80.2476 42.3088 79.3424C42.5612 78.4373 48.2157 85.6826 49.4642 83.5893C49.8053 83.0144 46.986 82.0465 47.5297 80.0208C50.2758 82.673 53.5342 84.9508 56.8959 85.4001Z" fill="black"/>
</g>
<path d="M54.8824 89.5391C52.9313 89.5185 49.8134 89.2245 46.3937 87.8869C41.2392 85.8711 34.429 81.0039 31.2584 69.2645L30.9414 68.0908L40.4182 69.6809L40.6029 69.9945C40.6822 70.1297 48.6416 83.5095 57.0016 84.6286L57.6858 84.7203L57.6369 89.3562L56.9666 89.445C56.8883 89.4555 56.1195 89.5521 54.8824 89.5391ZM33.1012 70.0353C35.6045 78.3004 40.2634 83.8142 46.9616 86.4343C51.0047 88.0156 54.6384 88.0293 56.0909 87.9519L56.1109 86.0601C47.9293 84.4118 40.7238 73.1868 39.4468 71.0996L33.1012 70.0353Z" fill="black"/>
<path d="M74.1783 70.7507C74.1783 70.7507 65.7615 84.4051 56.8978 85.4011L56.8633 88.6706C56.8633 88.6706 75.6847 91.5756 82.1239 69.5885L74.1783 70.7507Z" fill="#F92323"/>
<path d="M58.8256 89.5789C57.5873 89.5658 56.822 89.4524 56.7439 89.4408L56.0756 89.3379L56.1245 84.7021L56.8104 84.6248C65.1916 83.6823 73.432 70.4734 73.5142 70.3398L73.7048 70.0302L83.213 68.6403L82.8714 69.807C79.4538 81.477 72.5426 86.1995 67.3467 88.1061C63.9001 89.3719 60.7761 89.5995 58.8256 89.5789ZM57.6502 87.9653C59.1102 88.0716 62.787 88.1324 66.8753 86.6173C73.5927 84.1274 78.3442 78.721 81.0127 70.5388L74.6461 71.4697C73.3254 73.5295 65.8847 84.6 57.6702 86.0754L57.6502 87.9653Z" fill="black"/>
<path d="M33.3336 84.0101C33.0194 86.6439 32.6456 89.2442 32.2491 91.8437C32.0455 93.1418 31.8539 94.4419 31.6025 95.7288C31.3536 97.0157 31.0864 98.3024 30.7236 99.5623L30.7223 99.5667C30.5625 100.12 29.9844 100.44 29.4303 100.28C28.9328 100.137 28.6249 99.6556 28.6825 99.1584C28.8346 97.839 29.1006 96.5497 29.3943 95.2626C29.6873 93.9768 30.0483 92.705 30.4182 91.4358C30.7905 90.1672 31.1874 88.9046 31.6164 87.6505C32.0535 86.3984 32.5096 85.1515 33.0461 83.9314C33.0797 83.8554 33.1684 83.821 33.2437 83.8546C33.3065 83.8818 33.3405 83.9459 33.3336 84.0101Z" fill="black"/>
<path d="M4.31138 110.025C3.88116 110.02 3.53599 109.669 3.53926 109.239C3.56412 106.164 6.16078 102.999 10.1546 101.177C14.6986 99.1023 21.5773 98.6108 27.2521 103.453C27.5797 103.733 27.6187 104.225 27.3395 104.553C27.0598 104.88 26.5666 104.919 26.2396 104.64C21.1225 100.273 14.9106 100.72 10.8027 102.595C7.35786 104.168 5.11969 106.78 5.09994 109.251C5.09603 109.682 4.74413 110.028 4.31327 110.025C4.31264 110.025 4.31201 110.025 4.31138 110.025Z" fill="black"/>
<g opacity="0.35">
<path d="M56.8963 85.3999L56.8618 88.6706C56.8618 88.6706 71.329 90.9045 79.2343 76.634C77.2596 78.7336 71.6171 84.4656 69.0379 84.2958C66.6788 84.1422 71.8412 80.5615 71.6073 79.6512C71.374 78.7409 65.5679 85.8654 64.3638 83.7462C64.035 83.1642 66.874 82.256 66.3732 80.2193C63.5724 82.813 60.2667 85.0215 56.8963 85.3999Z" fill="black"/>
</g>
<path d="M55.1604 83.7983L56.3083 81.4376C56.5392 80.9631 57.2136 80.9589 57.4503 81.4307L58.6255 83.7774C58.7194 83.9645 58.8991 84.0938 59.1069 84.1232L61.7068 84.4856C62.2296 84.5586 62.4418 85.1987 62.0663 85.5694L60.1978 87.4127C60.0486 87.5601 59.9814 87.7713 60.0177 87.9774L60.4768 90.5613C60.5691 91.0808 60.0255 91.4807 59.5568 91.2379L57.2264 90.0305C57.0401 89.9339 56.8186 89.9353 56.634 90.0337L54.3183 91.2685C53.8526 91.5166 53.3047 91.1234 53.3903 90.6026L53.8189 88.0129C53.8532 87.8064 53.7835 87.5962 53.6324 87.4507L51.7419 85.6296C51.3616 85.2635 51.5664 84.6203 52.0884 84.5419L54.6836 84.1491C54.8902 84.1178 55.0688 83.9866 55.1604 83.7983Z" fill="#FFCE00"/>
<g opacity="0.7">
<path d="M62.0636 85.5725L61.3241 86.3022C61.2622 86.0725 61.0743 85.8807 60.8009 85.8412L58.2011 85.4788C57.9919 85.4513 57.8116 85.3207 57.7189 85.133L56.545 82.7876C56.3973 82.4952 56.0855 82.3859 55.8135 82.4556L56.3075 81.4413C56.539 80.9662 57.2122 80.9619 57.4501 81.4338L58.624 83.7817C58.7173 83.9669 58.897 84.0975 59.1062 84.125L61.706 84.4874C62.2282 84.5598 62.4391 85.2017 62.0636 85.5725Z" fill="white"/>
</g>
<g opacity="0.35">
<path d="M55.9529 90.3968L54.3147 91.2709C53.8509 91.5203 53.3024 91.1259 53.3887 90.6044L53.8153 88.0166C53.8509 87.8101 53.7806 87.5999 53.6314 87.4532L51.7396 85.634C51.3605 85.2666 51.5661 84.6233 52.0861 84.5456L53.365 84.3521C53.3858 84.4754 53.4463 84.599 53.5513 84.6979L55.4399 86.5196C55.5923 86.6638 55.6626 86.874 55.627 87.0806L55.2003 89.6715C55.1255 90.1281 55.5381 90.487 55.9529 90.3968Z" fill="black"/>
</g>
<path d="M54.0003 92.1265C53.7152 92.1235 53.4329 92.0334 53.1899 91.8592C52.7485 91.5423 52.5295 91.0126 52.6178 90.4766L53.0342 87.9619L51.198 86.1931C50.8071 85.8161 50.6666 85.2601 50.831 84.7426C50.9961 84.2251 51.4322 83.8531 51.9693 83.7717L54.4899 83.3901L55.6049 81.0979C55.8422 80.6096 56.3268 80.3036 56.8706 80.3005C57.4095 80.2942 57.9028 80.5966 58.1456 81.083L59.2874 83.3625L61.8123 83.714C62.3503 83.7891 62.7906 84.1558 62.9618 84.6718C63.1323 85.1872 62.9984 85.7447 62.6114 86.1261L60.7964 87.9163L61.2425 90.4263C61.3371 90.961 61.1246 91.4937 60.6865 91.8153C60.2491 92.1368 59.6777 92.1813 59.1952 91.9314L56.9319 90.7587L54.6828 91.9583C54.4671 92.0733 54.2331 92.1289 54.0003 92.1265ZM52.4904 85.2711L54.171 86.8907C54.5063 87.2141 54.6617 87.6813 54.5862 88.141L54.2048 90.4448L56.2642 89.3467C56.6747 89.1277 57.1675 89.124 57.5822 89.3385L59.6547 90.4127L59.2468 88.1145C59.1652 87.6556 59.3146 87.1859 59.6468 86.8582L61.3087 85.219L58.9974 84.8969C58.5351 84.8321 58.1349 84.5452 57.9261 84.1279L56.8807 82.0413L55.8598 84.1402C55.6561 84.5594 55.2587 84.8518 54.7974 84.9213L52.4904 85.2711Z" fill="black"/>
<path d="M97.6651 51.3463C97.2188 51.3751 96.8344 51.0366 96.8056 50.5903L95.3142 27.324C95.2855 26.8777 95.6239 26.4932 96.0702 26.4645C100.75 26.1644 104.788 29.7153 105.087 34.3952L105.596 42.3289C105.896 47.0088 102.345 51.0462 97.6651 51.3463Z" fill="white"/>
<path d="M97.6013 51.5339C97.3629 51.5314 97.136 51.4445 96.9554 51.2861C96.7554 51.1105 96.6362 50.8676 96.6194 50.6018L95.128 27.3355C95.1112 27.0698 95.1985 26.8139 95.3741 26.6139C95.5497 26.4139 95.7932 26.2947 96.059 26.2779C98.3708 26.1282 100.605 26.8911 102.345 28.4217C104.086 29.9523 105.126 32.0698 105.275 34.3829L105.783 42.3166C106.089 47.0918 102.453 51.2261 97.6777 51.5322C97.6518 51.5338 97.6259 51.5342 97.6013 51.5339ZM96.7138 26.6337C96.5044 26.6315 96.2936 26.6368 96.0821 26.6504C95.9161 26.6612 95.7645 26.7353 95.6547 26.8604C95.5449 26.9854 95.4902 27.1457 95.5011 27.3117L96.9925 50.578C97.0034 50.744 97.0781 50.8956 97.2025 51.0054C97.3275 51.1153 97.4891 51.1706 97.6532 51.1591C102.223 50.866 105.702 46.9104 105.409 42.3404L104.901 34.4067C104.759 32.1933 103.763 30.1672 102.098 28.7024C100.592 27.3774 98.6996 26.6546 96.7138 26.6337Z" fill="black"/>
<g opacity="0.35">
<path d="M105.358 38.6103L105.597 42.3313C105.897 47.0099 102.347 51.0474 97.6655 51.3494C97.2198 51.3788 96.8348 51.0378 96.8061 50.5915L96.4076 44.4065C96.5511 44.6806 96.8457 44.8572 97.1734 44.8385L97.7251 44.8015C101.423 44.566 104.418 41.9933 105.358 38.6103Z" fill="black"/>
</g>
<path d="M97.5889 52.3868C97.1467 52.3822 96.7257 52.2213 96.3901 51.9263C96.0188 51.6 95.797 51.1485 95.7656 50.6554L94.2742 27.3891C94.2422 26.8961 94.4049 26.4202 94.7312 26.0495C95.0575 25.6782 95.509 25.4571 96.0021 25.4251C98.5425 25.262 100.994 26.0985 102.906 27.7798C104.818 29.4611 105.96 31.7866 106.123 34.327L106.631 42.2606C106.967 47.5056 102.974 52.0462 97.729 52.382C97.6829 52.3859 97.6356 52.3873 97.5889 52.3868ZM96.3658 27.49L97.8275 50.2885C101.814 49.9104 104.814 46.4173 104.556 42.3946L104.048 34.4609C103.921 32.4748 103.028 30.6573 101.533 29.3425C100.096 28.0789 98.2699 27.4237 96.3658 27.49Z" fill="black"/>
<path d="M19.2727 31.3879C19.7191 31.3592 20.1035 31.6976 20.1322 32.144L21.6237 55.4102C21.6524 55.8566 21.314 56.241 20.8676 56.2697C16.1877 56.5699 12.1503 53.019 11.8508 48.3391L11.3421 40.4054C11.0419 35.7255 14.5928 31.6881 19.2727 31.3879Z" fill="white"/>
<path d="M20.2194 56.4736C18.144 56.4517 16.1672 55.6965 14.5933 54.3115C12.8524 52.781 11.8123 50.6635 11.6639 48.3503L11.1558 40.4167C10.8497 35.6415 14.4855 31.5071 19.2608 31.2011C19.5272 31.183 19.783 31.2715 19.9824 31.4471C20.1824 31.6227 20.3016 31.8656 20.3184 32.1314L21.8098 55.3977C21.8451 55.9457 21.4275 56.4201 20.8789 56.4553C20.6585 56.47 20.4383 56.4759 20.2194 56.4736ZM19.3325 31.5728C19.3168 31.5726 19.301 31.5731 19.2846 31.5742C14.7152 31.8673 11.2358 35.8228 11.5289 40.3929L12.037 48.3265C12.1789 50.5399 13.1745 52.5661 14.8397 54.0309C16.505 55.4957 18.6391 56.2254 20.8557 56.0829C21.1978 56.0606 21.459 55.7643 21.4374 55.4215L19.9459 32.1552C19.9351 31.9892 19.8603 31.8376 19.7359 31.7278C19.6228 31.6282 19.4808 31.5743 19.3325 31.5728Z" fill="black"/>
<g opacity="0.35">
<path d="M21.2125 48.9553L21.6258 55.4098C21.6551 55.8555 21.3142 56.2405 20.8679 56.2699C18.4114 56.4263 16.1296 55.5234 14.4743 53.9508C12.9796 52.5307 11.9954 50.5621 11.8523 48.3405L11.6377 44.9971C13.154 47.8451 16.2453 49.6984 19.6764 49.4791L20.5256 49.4243C20.8355 49.4043 21.088 49.2158 21.2125 48.9553Z" fill="black"/>
</g>
<path d="M20.2085 57.3284C17.9294 57.3044 15.7584 56.4752 14.0295 54.9542C12.118 53.2729 10.9754 50.9474 10.8129 48.407L10.3048 40.4734C9.96833 35.2284 13.9618 30.6878 19.2067 30.352C19.6997 30.3212 20.1756 30.4827 20.5463 30.809C20.9176 31.1353 21.1393 31.5868 21.1707 32.0799L22.6621 55.3462C22.7277 56.3639 21.9525 57.2452 20.9342 57.3102C20.6918 57.3247 20.4495 57.3309 20.2085 57.3284ZM19.1089 32.4455C15.1228 32.8236 12.122 36.3167 12.3799 40.3394L12.888 48.2731C13.0153 50.2592 13.9084 52.0767 15.403 53.3915C16.8394 54.6551 18.6652 55.3084 20.5699 55.2434L19.1089 32.4455Z" fill="black"/>
<path d="M58.0547 81.0921C79.9952 81.3235 97.969 63.7248 98.2004 41.7844C98.4318 19.844 80.8331 1.87012 58.8927 1.63872C36.9523 1.40731 18.9784 19.006 18.747 40.9464C18.5156 62.8869 36.1143 80.8607 58.0547 81.0921Z" fill="white"/>
<path d="M58.0494 81.2785C47.4429 81.1666 37.5056 76.9484 30.0532 69.392C22.5671 61.8005 18.4853 51.7478 18.5592 41.0861C18.7131 19.0768 36.7433 1.29628 58.7525 1.45018C69.4245 1.51289 79.4084 5.74606 86.8951 13.3376C94.3819 20.9291 98.463 30.9811 98.3891 41.6429C98.3151 52.3046 94.0932 62.2987 86.501 69.7854C78.9095 77.2716 68.8575 81.354 58.1958 81.2794C58.1472 81.2795 58.098 81.279 58.0494 81.2785ZM58.8956 1.82517C58.8464 1.82465 58.7991 1.82415 58.7505 1.82364C36.9475 1.67129 19.0857 19.2858 18.934 41.0888C18.8604 51.6502 22.9041 61.6085 30.3203 69.1292C37.7022 76.6149 47.5472 80.793 58.054 80.9044C58.1032 80.9049 58.1499 80.9054 58.1991 80.9059C68.7605 80.9795 78.7188 76.9358 86.2395 69.5196C93.7603 62.1034 97.9421 52.2023 98.0156 41.6408C98.0892 31.0794 94.0455 21.1211 86.6293 13.6004C79.2474 6.11469 69.4024 1.93599 58.8956 1.82517Z" fill="black"/>
<g opacity="0.35">
<path d="M97.8591 36.1424C98.0994 37.9404 98.2151 39.7769 98.2023 41.6448C98.046 63.5852 80.1363 81.2472 58.1958 81.0965C36.2553 80.9402 18.5934 63.0305 18.744 41.09C18.7482 40.4592 18.7668 39.8278 18.8018 39.2062C21.3451 58.5639 37.8352 73.5692 57.9103 73.7103C79.22 73.8568 96.7241 57.2019 97.8591 36.1424Z" fill="black"/>
</g>
<path d="M58.0395 82.133C47.206 82.0187 37.0563 77.7106 29.4448 69.9923C21.7982 62.2382 17.6291 51.9714 17.7055 41.0819C17.8625 18.6021 36.2783 0.44138 58.7582 0.598349C58.808 0.598874 58.8585 0.599407 58.9077 0.599926C69.7412 0.714185 79.8909 5.02228 87.5018 12.74C95.1484 20.4941 99.3175 30.7609 99.2411 41.6504C99.1654 52.5399 94.8529 62.7481 87.0994 70.3947C79.3453 78.0412 69.0785 82.2103 58.1891 82.134C58.1392 82.1341 58.0894 82.1335 58.0395 82.133ZM58.8857 2.67971C58.8378 2.67921 58.7917 2.67872 58.7432 2.67821C37.4108 2.52956 19.9346 19.7633 19.786 41.0963C19.7136 51.43 23.6706 61.1735 30.9263 68.5316C38.1827 75.8898 47.8793 79.9698 58.2034 80.0541C68.5372 80.1258 78.2806 76.1695 85.6388 68.9137C92.997 61.6573 97.0888 51.9704 97.1606 41.6366C97.233 31.3029 93.2766 21.5595 86.0202 14.2013C78.7982 6.87691 69.1654 2.78813 58.8857 2.67971Z" fill="black"/>
<path d="M98.0672 42.6617C98.1304 50.4354 95.6655 57.6734 91.3979 63.6805C88.1985 68.184 74.9615 76.1273 58.5379 76.4083C43.3101 76.6692 29.3876 68.6622 26.1155 64.2115C21.7512 58.2749 19.1686 51.0776 19.1055 43.3039C18.9382 22.7315 36.5443 14.059 58.3495 13.8821C80.1546 13.7051 97.9 22.0893 98.0672 42.6617Z" fill="black"/>
<path d="M57.3199 77.453C42.0454 77.2919 28.6236 69.381 25.2762 64.8279C20.6208 58.4959 18.1272 51.0561 18.0643 43.3126C17.9822 33.2182 21.9673 25.402 29.9075 20.0809C36.8331 15.44 46.6647 12.9369 58.3395 12.8424C70.0156 12.746 79.8857 15.0903 86.8855 19.6182C94.9118 24.8092 99.0229 32.5601 99.105 42.6544C99.1678 50.3979 96.7951 57.8772 92.2438 64.2838C89.0873 68.7273 75.9638 77.1512 58.5534 77.4489C58.1419 77.456 57.7293 77.4573 57.3199 77.453ZM59.8702 14.9247C59.3693 14.9194 58.8652 14.9191 58.3567 14.9226C46.7992 15.0164 19.9385 17.9696 20.1445 43.296C20.2038 50.5991 22.558 57.6185 26.9522 63.5958C30.0726 67.8399 43.661 75.627 58.5185 75.3692C74.9818 75.0873 87.6958 67.0944 90.5481 63.0792C94.8445 57.0315 97.0841 49.9741 97.0248 42.671C96.9487 33.3205 93.1576 26.1522 85.7555 21.3645C79.3992 17.2529 70.4729 15.0365 59.8702 14.9247Z" fill="black"/>
<g opacity="0.7">
<path d="M90.2327 40.8465C90.894 37.0203 89.1825 33.5302 86.41 33.051C83.6374 32.5718 80.8538 35.2851 80.1925 39.1112C79.5312 42.9374 81.2427 46.4275 84.0153 46.9067C86.7878 47.3859 89.5715 44.6726 90.2327 40.8465Z" fill="white"/>
</g>
<g opacity="0.7">
<path d="M81.7318 54.795C82.2751 53.0976 81.5346 51.3436 80.0778 50.8773C78.621 50.4111 76.9997 51.409 76.4564 53.1064C75.9131 54.8037 76.6536 56.5577 78.1104 57.024C79.5671 57.4903 81.1885 56.4923 81.7318 54.795Z" fill="white"/>
</g>
<g opacity="0.35">
<path d="M90.2329 23.5329C95.0968 28.0994 97.9987 34.3991 98.0673 42.6619C98.1304 50.4375 95.6643 57.6749 91.3999 63.682C88.1999 68.1849 74.961 76.1281 58.538 76.4111C52.7391 76.512 47.1314 75.4119 42.2267 73.7634C62.4067 72.9858 78.5314 63.2371 82.4987 57.6521C87.9151 50.0282 91.0434 40.8409 90.9613 30.9762C90.9418 28.3395 90.6885 25.8606 90.2329 23.5329Z" fill="#111A28"/>
</g>
<path d="M21.9258 26.7781C21.7025 26.7757 21.4787 26.7021 21.2904 26.5524C20.8543 26.2059 20.7707 25.5811 21.0915 25.1334C27.9834 14.8318 41.4654 8.84625 58.0862 8.71053C74.5745 8.57403 88.1548 14.1441 95.3276 23.9877C95.6434 24.3696 95.6494 24.9343 95.3173 25.3245C94.9448 25.7615 94.2888 25.8145 93.8511 25.4421L93.7397 25.3539L93.6777 25.2567C86.9145 15.9347 73.9417 10.6644 58.1034 10.7907C42.1709 10.9205 29.3056 16.5775 22.8071 26.3104L22.752 26.3855C22.5442 26.6464 22.2362 26.7813 21.9258 26.7781ZM21.8699 25.6841L21.9374 25.7379L21.8699 25.6841Z" fill="black"/>
<g opacity="0.7">
<path d="M28.0737 55.4734C28.0737 55.4734 21.5368 35.2301 32.4092 27.0537C43.281 18.8773 59.0175 18.7821 58.6573 19.794C58.6573 19.794 41.2709 24.153 34.5664 37.9806C29.3962 48.6442 28.0737 55.4734 28.0737 55.4734Z" fill="white"/>
</g>
<path d="M52.9798 138.905C52.412 138.853 51.9133 138.756 51.3954 138.633C50.8844 138.511 50.3813 138.362 49.8859 138.192C48.8926 137.861 47.9383 137.423 47.0103 136.943C46.5408 136.716 46.0952 136.438 45.6424 136.182C45.1993 135.905 44.7587 135.628 44.336 135.322C43.4818 134.728 42.6877 134.047 41.9554 133.32C41.8998 133.265 41.8995 133.175 41.955 133.12C41.9971 133.078 42.0603 133.068 42.1124 133.09L42.1174 133.093C43.0555 133.511 43.9581 133.946 44.895 134.303C45.3503 134.505 45.8301 134.655 46.2874 134.842C46.7576 135.005 47.2233 135.171 47.6942 135.323C48.6316 135.635 49.5814 135.9 50.5217 136.175L51.228 136.377C51.4639 136.441 51.6992 136.508 51.9331 136.578C52.3967 136.708 52.8842 136.848 53.3124 136.983L53.3633 136.999C53.8783 137.162 54.164 137.711 54.0008 138.226C53.8598 138.673 53.428 138.946 52.9798 138.905Z" fill="black"/>
<path d="M61.5434 137.069C61.9744 136.943 62.4646 136.814 62.9309 136.693C63.1663 136.628 63.4022 136.567 63.6394 136.507L64.3499 136.32C65.2964 136.065 66.251 135.821 67.1953 135.528C67.6694 135.386 68.1379 135.23 68.6114 135.077C69.0725 134.9 69.5554 134.76 70.0148 134.568C70.959 134.229 71.87 133.814 72.8173 133.416L72.8224 133.414C72.894 133.384 72.9769 133.418 73.0071 133.49C73.0305 133.545 73.0153 133.607 72.9745 133.646C72.227 134.358 71.4187 135.022 70.5522 135.598C70.1232 135.895 69.6768 136.162 69.228 136.43C68.7705 136.676 68.3185 136.945 67.8443 137.162C66.9064 137.622 65.943 138.04 64.943 138.351C64.4442 138.509 63.9386 138.649 63.4245 138.759C62.9041 138.871 62.4042 138.958 61.8347 138.998C61.2962 139.036 60.8292 138.63 60.7913 138.091C60.7584 137.624 61.0599 137.211 61.4915 137.085L61.5434 137.069Z" fill="black"/>
<path d="M29.9865 158.689C30.6726 158.533 31.312 158.445 31.9782 158.386C32.3079 158.351 32.6387 158.331 32.9701 158.319C33.3008 158.299 33.6321 158.295 33.9633 158.297C35.2888 158.292 36.6154 158.424 37.9267 158.636C39.2378 158.866 40.5313 159.21 41.7767 159.677C43.013 160.178 44.1923 160.821 45.2158 161.644C45.2764 161.692 45.2856 161.781 45.237 161.841C45.1974 161.89 45.1303 161.906 45.0744 161.883L45.0688 161.88C43.8778 161.392 42.6772 161.034 41.4521 160.792C40.2197 160.572 38.982 160.444 37.7392 160.384C36.4931 160.338 35.248 160.37 34.0041 160.412C32.7683 160.458 31.4981 160.543 30.2999 160.614L30.2608 160.616C29.7223 160.648 29.2604 160.237 29.2282 159.699C29.1999 159.214 29.5286 158.793 29.9865 158.689Z" fill="black"/>
<path d="M84.0775 161.182C82.8811 161.086 81.6124 160.974 80.3785 160.902C79.1357 160.834 77.8916 160.775 76.6448 160.795C75.401 160.829 74.1608 160.931 72.9242 161.125C71.6942 161.342 70.4863 161.673 69.2853 162.136L69.2796 162.138C69.2074 162.166 69.1264 162.13 69.0981 162.058C69.0754 161.999 69.0956 161.933 69.1433 161.896C70.1839 161.095 71.3765 160.478 72.6231 160.003C73.8781 159.562 75.1786 159.245 76.4942 159.043C77.8096 158.859 79.1387 158.755 80.4639 158.788C80.795 158.792 81.1268 158.804 81.4564 158.83C81.7868 158.85 82.1171 158.876 82.4466 158.918C83.1114 158.992 83.7488 159.093 84.4315 159.263C84.955 159.395 85.2731 159.925 85.142 160.448C85.0248 160.918 84.5844 161.222 84.1166 161.184L84.0775 161.182Z" fill="black"/>
</svg>
